<svg width="818" height="1191" viewBox="0 0 818 1191" fill="none" xmlns="http://www.w3.org/2000/svg">
<path fill-rule="evenodd" clip-rule="evenodd" d="M394.207 461.173C418.892 442.376 480.865 433.923 507.211 452.022C533.233 470.197 536.07 499.589 548.196 526.627C559.637 521.232 578.53 528.958 581.847 539.574C585.961 544.581 586.146 558.649 588.983 565.38C712.425 585.029 731.166 681.267 746.024 790.525C765.68 901.394 810.301 1012.02 790.93 1126.11C793.454 1129.76 795.444 1133.31 797.284 1137.53C801.693 1145.03 796.014 1155.65 787.121 1155.24C775.61 1154.22 764.213 1152.84 752.648 1152.41C720.588 1151.3 688.499 1151.43 656.427 1151.84L652.054 1151.9C490.421 1153.91 328.797 1157.87 167.157 1158.93C161.293 1158.93 158.422 1153.68 159.205 1148.49C160.782 1138.04 162.245 1127.59 163.772 1117.14C125.54 1127.24 84.8958 1129.78 46.7718 1118.2C44.1048 1115.49 52.9858 1116.96 54.3948 1116.55C19.3088 1092.57 29.7868 1042.07 32.8948 1005.69C52.2208 881.036 59.0338 743.118 133.703 636.751C166.006 593.343 213.365 558.975 267.784 551.242L269.294 551.036C285.206 548.914 302.939 548.231 316.852 539.574C332.499 527.083 339.167 504.002 355.628 503.786C361.064 503.715 368.459 510.592 376.416 515.26C377.01 504.99 382.545 496.322 383.767 488.359L383.866 487.678C385.141 478.394 383.395 470.041 394.207 461.173ZM659.495 793.819C624.804 769.719 535.191 781.828 533.14 783.178C528.623 786.149 526.678 786.411 524.235 790.269C521.823 790.589 519.413 790.921 517.005 791.263C512.174 792.841 515.754 798.783 521.334 796.663C517.978 811.138 527.855 821.431 531.787 835.741C533.064 840.387 531.833 848.743 531.787 853.49C532.168 859.543 538.86 866.693 537.745 872.766C533.78 894.355 512.262 915.415 521.334 936.352C527.344 948.177 545.42 954.206 557.438 958.226C582.337 967.782 625.721 957.867 640.188 936.352C647.905 924.876 656.844 895.928 661.445 886.949L662.465 872.706C664.98 837.299 667.217 799.183 659.495 793.819Z" fill="white"/>
<path fill-rule="evenodd" clip-rule="evenodd" d="M349.584 501.698C351.979 499.577 355.523 502.242 354.001 505.107C350.581 511.546 347.073 517.647 342.483 523.339C339.7 526.79 336.719 530.054 333.698 533.282C341.451 539.989 348.1 548.316 354.379 556.12C362.408 566.101 369.999 576.505 379.012 585.638C387.901 594.646 397.729 600.942 409.613 605.141L412.013 605.974C423.952 610.165 436.711 615.825 443.44 627.128C444.767 629.357 442.095 632.111 439.849 630.72C428.156 623.48 414.417 622.024 401.689 617.24C389.394 612.619 378.676 605.507 369.206 596.43C359.752 587.368 351.814 577.058 343.534 566.966C335.346 556.987 326.53 548.464 316.845 540.021C301.9 550.076 284.84 554.451 267.493 558.748L265.599 559.216C248.231 563.516 230.956 568.51 214.662 575.998C200.296 582.599 186.166 590.482 174.464 601.224C162.042 612.624 152.374 627.184 143.525 641.423C123.731 673.279 109.815 708.179 97.5643 743.503C84.8223 780.245 74.1643 817.723 65.5603 855.646C61.1843 874.936 57.6303 894.363 54.7093 913.926C53.3033 923.348 52.0543 932.79 50.9573 942.253C49.7863 952.358 49.5173 962.754 46.4173 972.47C45.0883 976.634 41.9503 978.362 38.8093 978.215L38.1713 986.194C37.3253 996.832 36.5367 1007.47 36.2703 1018.18C35.8284 1035.98 36.0287 1053.72 37.309 1071.48L37.4903 1073.9C38.4963 1086.87 40.7443 1101.43 50.4913 1110.92C60.5853 1120.75 76.1083 1123.84 89.7133 1124.02C121.4 1124.43 151.902 1109.46 179.942 1096.33C208.82 1082.8 236.909 1067.78 264.325 1051.5C278.287 1043.21 292.098 1034.64 305.733 1025.82C312.424 1021.49 319.068 1017.09 325.662 1012.61C329.439 1010.05 333.018 1007.24 336.863 1004.97C334.979 1003.22 334.138 1000.46 335.716 998.05C324.601 988.402 319.975 971.185 319.434 957.254C318.997 946.009 320.652 934.796 321.958 923.657C322.617 918.04 323.431 912.433 324.276 906.841C324.61 904.632 324.865 902.269 325.255 899.937C295.242 916.43 264.388 931.118 232.717 944.167C216.483 950.856 200.041 956.87 183.372 962.381L179.994 963.493C164.2 968.663 148.028 973.547 131.7 976.502C130.827 976.66 130.118 975.371 131.05 974.96C146.962 967.939 163.425 962.017 179.576 955.551L182.23 954.47V954.47C181.925 954.453 181.609 954.411 181.279 954.332C171.807 952.046 162.409 948.523 153.119 945.557C144.497 942.804 134.81 941.075 126.751 936.919C126.131 936.599 126.478 935.737 127.082 935.696C136.14 935.068 145.973 937.708 154.854 939.261L158.191 939.846C163.78 940.831 169.493 941.891 175.054 943.272C175.255 941.409 176.296 939.538 177.777 938.441C194.074 926.372 192.419 901.996 194.162 884.021L195.455 870.676C197.728 847.321 200.133 823.969 203.787 800.788C203.982 799.55 205.897 799.905 205.905 801.074C206.094 829.809 203.925 858.411 202.837 887.101L202.669 891.808C202.068 909.51 201.597 927.893 190.447 941.514C192.006 940.603 194.114 940.603 195.377 942.105C196.929 943.952 197.825 946.026 197.797 948.061C207.872 943.837 217.903 939.503 227.885 935.081C259.978 920.863 291.398 904.952 321.987 887.736C325.279 885.883 328.408 887.339 330.036 889.782L330.271 889.749C330.31 889.743 330.35 889.739 330.391 889.738L330.624 889.728C330.633 889.728 330.642 889.729 330.65 889.729C334.956 887.363 340.822 889.048 344.517 892.499C344.626 892.603 344.719 892.715 344.816 892.825C349.494 890.725 353.862 887.89 357.826 884.297C365.938 876.945 372.809 867.854 378.799 858.738C389.83 841.948 399.2 823.277 414.101 809.456C426.208 798.227 441.218 791.236 456.965 786.847C456.899 786.387 457.075 785.897 457.393 785.571C458.202 784.742 458.779 784.455 459.824 784.958C459.907 784.999 459.957 785.055 459.991 785.115L461.528 782.49C462.367 781.065 463.228 779.63 463.526 779.253C465.314 777.002 467.154 774.768 469.022 772.581C472.189 768.878 475.798 765.224 479.977 762.656C489.127 757.035 498.746 760.216 508.153 763.288C513.837 765.145 519.502 767.062 525.176 768.947L525.762 769.139C529.992 770.498 534.943 771.687 536.835 776.169C537.584 777.943 537.7 779.784 537.351 781.57C577.535 771.351 622.167 776.046 661.38 788.042C662.885 788.502 664.388 789.74 664.705 791.366C669.198 814.407 671.199 838.036 669.166 861.47C667.412 881.698 662.93 901.521 654.484 920.04L654.004 921.086C646.067 938.249 633.486 959.405 614.273 964.784C602.672 968.032 589.841 966.117 578.009 965.522C566.51 964.943 554.756 964.859 543.366 963.051C533.222 961.441 524.334 956.894 518.065 948.646C512.657 941.53 509.809 932.93 507.476 924.375C506.408 924.715 505.347 925.076 504.303 925.485C499.896 927.206 496.162 929.984 492.786 933.253C485.657 940.157 480.127 948.542 472.668 955.13C465.916 961.094 458.222 965.732 449.969 969.298C432.868 976.688 414.522 979.641 396.433 983.557L395.171 983.831C381.553 986.819 367.653 990.488 355.633 997.578C355.398 999.665 354.447 1001.63 352.923 1002.92C355.043 1004.91 355.941 1008.06 354.078 1011.02C348.874 1019.28 339.911 1023.97 331.864 1029.26L331.34 1029.6C323.424 1034.85 315.439 1039.99 307.389 1045.03C291.024 1055.28 274.317 1064.96 257.374 1074.22C230.123 1089.1 202.287 1103.15 173.947 1115.88C175.648 1124.25 175.027 1132.88 176.305 1141.31L176.501 1142.51C177.047 1145.63 176.31 1148.25 174.156 1150.29L173.928 1150.5L173.932 1150.47L173.73 1150.66L173.663 1150.72L173.685 1150.7C173.437 1150.93 173.181 1151.14 172.92 1151.32L172.587 1151.53V1151.53C170.513 1152.79 167.843 1152.78 165.719 1151.67L165.476 1151.53L165.068 1151.3C162.262 1149.68 160.327 1145.69 161.491 1142.51C164.352 1134.7 165.433 1126.37 168.075 1118.51L165.979 1119.44V1119.44L163.217 1120.65C133.339 1133.57 100.15 1144.45 67.5963 1135.64C53.2123 1131.75 39.7683 1123.51 32.5713 1110.09C25.4893 1096.89 24.4883 1081.55 24.1123 1066.86C23.6483 1048.73 24.6203 1030.32 27.0113 1012.35C28.6163 1000.28 30.5573 987.988 33.5513 976.047C32.0113 974.688 30.8793 972.739 30.5803 970.325C29.1673 958.92 31.6403 947.063 33.1543 935.717C34.6333 924.639 36.2673 913.583 38.1153 902.561C41.8463 880.302 46.1813 858.09 51.2283 836.092C60.2103 796.941 72.0713 758.486 86.3513 720.95L87.6018 717.681C100.797 683.372 116.076 649.795 137.35 619.654C147.527 605.234 158.285 592.16 172.665 581.769C186.137 572.033 201.333 565.023 217.015 559.665C232.714 554.303 248.85 550.71 265.271 548.475C281.948 546.205 299.551 544.813 315.108 537.973C313.14 534.445 314.829 529.682 318.141 527.494C329.287 520.13 339.594 510.55 349.584 501.698ZM706.39 821.92C706.857 821.211 707.966 821.659 707.761 822.498C702.34 844.707 697.251 866.961 693.928 889.594C687.929 930.443 689.033 971.827 689.523 1012.98L689.548 1015.11C689.8 1037.27 690.15 1059.44 690.883 1081.6C691.253 1092.8 691.985 1104.1 691.587 1115.31C691.37 1121.39 689.75 1127.13 689.176 1133.14C688.673 1138.39 689.121 1143.72 689.372 1148.98C689.54 1152.48 684.38 1152.33 684.029 1148.98L683.58 1144.65C682.997 1139.17 682.276 1133.73 680.481 1128.48C678.322 1122.18 677.286 1115.98 676.537 1109.36C675.39 1099.21 674.88 1088.96 674.437 1078.75L674.134 1071.68C672.285 1028.97 672.35 986.069 675.343 943.409L675.562 940.363C678.526 900.039 683.669 856.47 706.39 821.92ZM590.835 567.773C589.419 567.191 589.915 565.05 591.483 565.423L594.335 566.103C615.229 571.108 635.745 576.53 655.247 585.843C674.762 595.161 691.284 609.072 704.412 626.178C729.932 659.429 740.537 699.839 748.909 740.211C758.213 785.072 766.684 830.097 776.069 874.944L777.812 883.298C786.496 925.067 794.695 966.861 800.736 1009.13L801.17 1012.19C807.262 1055.65 810.927 1100.62 804.279 1144.19C802.964 1152.81 788.618 1150.67 789.179 1142.15C790.799 1117.53 791.959 1093.03 790.838 1068.36C789.716 1043.67 787.401 1019.1 783.95 994.63C781.046 974.04 776.717 953.706 772.886 933.279L772.285 930.053C769.077 912.679 765.77 895.323 762.47 877.966L757.539 851.978C750.148 813.065 742.612 774.118 734.097 735.449L733.592 733.174C725.259 695.972 712.974 657.002 687.979 627.46C662.614 597.479 626.303 582.38 590.835 567.773ZM498.668 962.371C499.278 961.012 501.412 961.161 502.068 962.371C504.638 967.113 504.924 973.167 505.41 978.52L505.461 979.072C506.079 985.605 506.626 992.16 506.961 998.714C507.596 1011.15 507.9 1023.58 507.861 1036.03C507.821 1048.79 507.564 1061.54 506.876 1074.29L506.689 1077.7C506.061 1088.78 505.008 1101.13 499.745 1110.82C497.832 1114.34 492.629 1113.3 491.521 1109.74C487.891 1098.09 489.755 1084.27 490.686 1072.33L491.409 1063.01C492.125 1053.7 492.808 1044.38 493.349 1035.05C494.091 1022.29 494.703 1009.52 495.292 996.75C495.483 992.603 495.69 988.455 495.909 984.308L496.245 978.09C496.532 972.888 496.508 967.18 498.668 962.371ZM90.5203 978.89L92.1272 977.338C97.0602 972.51 103.294 965.076 110.587 965.537C113.495 965.721 115.348 968.135 114.745 970.996C113.457 977.112 107.218 980.286 102.727 984.02C97.8066 988.109 93.1696 992.48 88.5416 996.893C84.4358 1000.81 80.4873 1004.83 76.6334 1008.98L75.1926 1010.54C73.8112 1012.05 63.974 1020.95 65.0377 1023.26L65.0956 1023.36C65.3916 1023.8 64.8986 1024.41 64.4076 1024.25C60.1596 1022.91 60.4246 1019.27 62.0306 1015.58C65.1166 1008.49 70.5206 1001.94 75.2396 995.884C79.9458 989.845 85.0397 984.222 90.5203 978.89V978.89ZM514.061 801.137C510.776 793.373 498.675 793.536 491.805 794C474.505 795.169 455.787 799.546 440.394 807.632C424.436 816.015 413.686 829.447 404.067 844.3L403.617 844.997C394.242 859.57 385.213 876.821 370.533 886.841C363.056 891.946 354.325 896.607 345.253 898.626C344.63 899.721 343.621 900.588 342.298 900.903L341.683 901.044C339.099 901.615 335.085 902.246 331.618 901.868C331.641 903.564 331.623 905.247 331.666 906.854C331.788 911.459 331.84 916.084 331.84 920.692C331.842 930.347 331.323 940.021 331.726 949.675C332.083 958.214 333.289 967.136 337.389 974.769C340.396 980.369 344.365 984.075 349.156 987.613C360.942 980.43 374.269 976.052 387.795 972.76C404.153 968.779 420.902 966.122 436.888 960.724C444.582 958.125 451.979 954.724 458.681 950.105C465.794 945.2 471.227 938.564 476.817 932.073L477.691 931.065C483.396 924.522 489.621 918.262 497.683 914.714C504.626 911.658 513.777 911.114 519.848 906.386C523.022 903.912 523.288 900.322 523.622 896.646C519.734 897.202 515.618 896.311 511.743 895.857L509.736 895.622C506.071 895.186 502.491 894.708 498.884 893.775C498.214 893.602 498.214 892.592 498.884 892.419C503.147 891.318 507.372 890.849 511.743 890.337L512.77 890.209C516.724 889.691 520.881 888.908 524.759 889.778C525.455 887.13 526.46 884.602 527.87 882.07C529.849 878.513 533.594 874.48 534.1 870.325C534.251 869.084 533.962 867.621 533.377 866.524L533.176 866.151C532.93 865.709 532.639 865.265 532.212 864.989C532.165 865.044 532.065 865.107 531.848 865.175C528.863 866.115 526.259 864.654 524.877 862.402C519.01 863.13 512.607 862.885 507.105 863.128L501.542 863.398C495.598 863.67 489.384 863.789 483.798 862.588C483.018 862.421 482.782 861.123 483.563 860.789C490.43 857.852 498.76 856.915 506.112 855.787C510.218 855.156 514.354 854.676 518.472 854.121C521.214 853.751 524.124 853.14 526.965 852.993C534.088 844.126 530.25 830.138 520.337 826.32C516.726 827.907 513.479 826.984 509.534 826.645C505.596 826.307 501.648 826.078 497.694 826.095C489.771 826.13 481.375 828.214 473.529 827.317C472.253 827.17 471.067 825.472 472.336 824.436C478.342 819.535 486.95 817.937 494.573 816.893L496.153 816.681C498.709 816.346 501.817 815.857 505.041 815.566C505.77 814.144 507.078 813.069 509.043 812.802C509.627 812.722 510.214 812.675 510.8 812.625L510.791 812.567V812.567C515.583 812.337 515.375 804.243 514.061 801.137ZM185.992 952.562C185.908 952.693 185.815 952.818 185.716 952.937L185.564 953.113L186.352 952.793L185.992 952.562V952.562ZM597.683 783.788C577.513 781.621 557.314 782.078 537.084 782.66C535.466 787.952 529.834 792.462 524.377 792.632C528.651 799.137 529.092 807.941 526.095 814.84C532.458 817.373 537.94 821.923 541.268 828.403C545.883 837.386 545.279 847.382 540.718 855.684C544.611 859.208 546.908 864.931 546.678 870.325C546.421 876.34 542.836 881.478 539.857 886.458C536.638 891.844 536.53 896.586 535.541 902.618C534.094 911.446 528.14 916.8 520.479 920.144L520.887 921.746C522.862 929.435 525.319 937.547 530.964 943.168C538.226 950.401 549.492 950.334 559.086 950.792L559.549 950.814C568.335 951.254 577.117 951.768 585.899 952.266L592.486 952.634C602.598 953.19 612.309 953.257 620.564 946.572C634.041 935.66 643.28 917.601 649.128 901.614C661.402 868.058 661.549 831.233 655.915 796.285C637.02 790.195 617.415 785.908 597.683 783.788ZM429.944 839.46L430.093 839.471C434.246 839.945 437.099 843.308 438.115 847.297C439.591 853.095 438.867 858.337 442.418 863.571C446.071 868.953 448.317 873.262 448.848 879.911C449.066 882.647 448.966 885.376 449.575 888.054L450.016 889.93C450.485 891.931 450.869 893.858 450.636 896.006C450.423 897.965 449.469 899.491 447.504 900.119C441.101 902.167 436.157 897.449 434.503 891.482C433.074 886.328 434.982 880.186 432.966 875.346C431.849 872.663 429.789 870.419 428.625 867.718C427.472 865.041 426.893 862.244 426.708 859.334C426.357 853.83 431.225 847.217 428.509 842.23C427.93 841.166 428.585 839.428 429.944 839.46ZM344.892 782.662C349.228 781.781 354.147 779.762 358.423 781.44C360.621 782.304 361.707 784.984 359.85 786.847C356.626 790.079 351.94 790.259 347.597 791.021L347.215 791.09C342.08 792.04 336.936 792.941 331.785 793.795C322.094 795.4 312.38 796.819 302.632 798.025C292.62 799.264 282.58 800.367 272.526 801.197L268.634 801.516C260.141 802.195 251.304 802.708 242.971 801.407C241.76 801.218 241.955 799.455 242.971 799.146C252.1 796.383 262.114 795.642 271.552 794.473C281.586 793.228 291.603 791.913 301.594 790.353C311.569 788.795 321.531 787.123 331.456 785.275C335.942 784.441 340.421 783.57 344.892 782.662ZM501.346 773.79C497.541 772.443 493.355 770.447 489.232 771.115C482.122 772.267 475.794 779.194 470.166 783.756L472.992 783.207C487.451 780.428 506.599 777.434 518.737 786.627C518.768 786.574 518.792 786.521 518.827 786.468C519.807 784.98 520.942 783.819 522.181 782.546C522.3 782.435 522.414 782.319 522.527 782.202L523.195 781.49L521.666 780.961C518.392 779.803 514.512 778.309 513.899 778.09L513.856 778.075C509.681 776.661 505.501 775.263 501.346 773.79ZM382.545 470.716C381.95 463.063 393.861 463.126 394.451 470.716C395.738 487.286 392.009 503.699 383.983 518.226C383.924 518.332 383.859 518.426 383.797 518.526C388.817 521.138 393.894 523.644 399.084 525.884C405.723 528.75 412.487 531.36 419.372 533.574C425.6 535.578 433.273 536.369 438.509 540.539C449.55 549.331 445.402 567.577 443.278 579.404L442.946 581.271C441.889 587.357 441.124 593.601 443.69 599.442C446.43 605.681 451.971 610.309 456.914 614.773L457.912 615.678C462.291 619.668 467.295 624.515 470.507 629.923C473.439 623.861 477.436 618.907 481.662 613.33C484.677 609.35 482.531 608.038 480.365 604.15C478.28 600.408 477.262 596.419 477.914 592.15C479.117 584.266 485.418 578.571 491.69 574.292C499.097 569.241 507.364 565.499 515.021 560.8C530.755 551.146 546.078 540.108 559.883 527.849C560.264 527.51 560.924 527.954 560.619 528.417C549.714 545.004 536.927 559.337 521.212 571.503C514.839 576.436 508.146 580.528 501.407 584.83L499.469 586.073C496.764 587.826 493.389 590.168 492.166 593.152C490.935 596.153 493.56 598.419 494.973 600.905C499.46 608.8 497.295 616.166 491.975 622.861L491.728 623.169C486.442 629.683 482.436 635.741 480.52 644.063C476.403 661.94 482.137 680.561 488.139 697.344L488.377 698.005C491.624 707.051 495.075 716.031 497.896 725.222L498.672 727.763C501.228 736.22 503.321 744.561 500.454 753.254C499.479 756.211 495.446 756.91 493.771 754.127C487.862 744.313 486.389 732.503 482.685 721.713C479.075 711.197 474.93 700.871 471.443 690.312C466.953 676.717 463.948 662.083 465.579 647.823C465.531 647.74 465.478 647.662 465.438 647.574L464.295 645.074C461.178 638.304 458.168 632.392 452.5 626.996C446.588 621.367 440.171 616.384 435.519 609.57C425.414 594.769 431.663 578.304 432.884 562.12L433.023 560.136C433.245 556.775 433.367 552.209 431.172 549.883C428.703 547.265 422.913 546.597 419.637 545.438C411.171 542.442 402.828 538.951 394.882 534.759C387.318 530.769 379.991 526.361 373.169 521.197L369.711 518.596C364.255 514.48 358.598 509.984 354.942 504.381C354.52 503.736 355.237 502.695 356.001 503.004C362.105 505.481 367.682 509.421 373.393 512.849C373.482 512.64 373.585 512.429 373.702 512.217C380.768 499.429 383.674 485.261 382.545 470.716ZM577.528 558.331C579.96 551.662 591.044 552.177 590.602 560.101C590.263 566.189 587.678 571.684 585.315 577.211L585.063 577.803C582.623 583.562 579.805 588.969 576.433 594.247C569.99 604.337 562.443 613.701 554.382 622.538C547.074 630.55 537.482 635.449 526.429 634.635C521.772 634.292 517.071 633.107 512.99 630.781C508.143 628.017 502.879 619.718 496.695 621.728C496.097 621.922 495.539 621.046 496.056 620.631C503.195 614.882 511.298 623.796 518.133 625.944C528.432 629.179 539.001 625.602 545.63 617.276C552.551 608.583 558.921 598.85 564.738 589.385C567.692 584.579 570.387 579.591 572.715 574.45C575.064 569.261 575.598 563.622 577.528 558.331ZM560.927 517.289C560.627 516.368 561.771 515.492 562.58 516.018C567.271 519.072 571.336 523.107 575.663 526.644C580.464 530.568 585.3 534.412 590.211 538.197C597.37 543.716 589.067 553.876 582.765 547.847C574.141 539.6 564.696 528.816 560.927 517.289ZM535.172 485.009C537.077 477.661 548.349 480.691 546.706 487.954L546.653 488.175C543.542 500.172 547.972 512.386 557.431 520.163L557.78 520.445C563.764 525.234 555.286 533.606 549.361 528.863C536.426 518.511 531.045 500.926 535.172 485.009Z" fill="black"/>
<path fill-rule="evenodd" clip-rule="evenodd" d="M627.529 304.003C625.376 285.088 628.162 245.552 628.349 243.15C629.529 227.965 622.414 168.002 608.964 173.527C586.402 155.666 556.351 151.722 528.251 149.838C469.884 145.924 407.791 154.909 362.721 194.189C340.432 214.588 318.733 244.257 320.477 275.149C300.226 304.431 271.677 344.598 296.909 378.831C305.485 389.768 319.117 393.841 329.891 402.124C351.563 419.604 365.159 444.69 387.036 462.066C444.997 514.149 543.414 525.029 600.36 465.789C644.395 422.885 637.275 358.699 629.529 304.003C624.322 267.23 631.729 340.904 627.529 304.003Z" fill="white"/>
<path fill-rule="evenodd" clip-rule="evenodd" d="M450.28 69.6256C465.89 66.4756 481.919 64.5156 497.86 65.1056L499.089 65.1533C511.083 65.6327 526.273 66.6931 536.736 73.6676C537.338 73.0636 538.306 72.7536 539.184 73.1726C551.618 79.1076 565.294 83.3986 578.386 87.6626C591.418 91.9056 604.938 94.7066 618.597 95.8356C623.736 96.2606 628.134 101.81 624.88 106.787C624.106 107.973 623.352 109.171 622.601 110.372C623.857 110.241 625.113 110.106 626.369 109.979C630.502 109.563 634.631 113.974 634.386 117.998C634.233 120.529 633.96 123.03 633.556 125.501C635.13 125.468 636.695 125.704 638.207 126.343C645.863 129.576 645.33 138.695 644.757 145.633C643.963 155.261 640.362 165.459 633.676 172.665C638.668 177.85 642.202 184.042 644.31 191.396C645.839 196.766 646.69 202.486 646.27 208.076L646.136 209.749C645.617 215.815 644.584 222.532 640.22 226.896C637.98 229.146 635.22 229.966 632.589 229.706C634.18 243.686 635.2 257.746 636.16 271.756L636.61 278.452C638.752 310.832 640.361 343.422 639.94 375.856C639.549 406.166 633.56 435.586 614.97 460.196C598.039 482.606 573.73 499.126 546.23 505.406C531.41 508.796 516.28 509.036 501.28 506.876C494.009 505.826 486.69 504.216 479.789 501.676C472.15 498.856 466.66 494.706 461.52 488.486C459.089 485.536 460.259 479.256 465.1 479.846C472.421 480.733 479.105 481.803 486.124 483.969L487.129 484.286C494.12 486.526 501.36 488.196 508.669 488.906C523.64 490.356 538.839 488.896 553.18 484.356C576.53 476.956 596.64 460.466 609.53 439.746C624.83 415.186 626.56 387.306 626.339 359.066C626.102 328.077 625.094 297.071 623.449 266.114L623.169 260.956C622.299 245.026 621.459 229.086 620.72 213.146C620.49 208.146 620.14 203.106 619.509 198.116C613.74 194.736 608.57 190.076 605.2 184.326C598.43 187.126 591.31 189.146 584.759 190.756C569.585 194.488 553.831 195.394 538.386 193.057C534.22 194.778 529.971 196.291 525.657 197.593C524.491 198.11 523.325 198.618 522.16 199.116C511.759 203.566 501.209 207.336 490.23 210.096L487.533 210.768C481.755 212.192 475.479 213.595 469.33 214.036C468.32 214.426 467.23 214.756 466.039 215.046C460.44 216.406 454.629 216.836 448.89 216.356C443.299 215.886 439.259 210.236 442.339 204.946C444.589 201.086 446.86 197.236 449.15 193.396C441.18 196.716 432.95 199.476 424.65 201.816C416.27 204.176 407.77 206.166 399.259 207.996C394.709 208.966 390.14 209.826 385.6 210.796C382.35 211.486 377.36 211.846 374.709 213.986C371.78 216.336 370.95 221.816 369.839 225.196C368.379 229.586 367.009 233.996 365.759 238.456C363.27 247.356 361.23 256.386 359.65 265.506C358.07 274.636 357.009 283.856 356.419 293.106C355.83 302.346 356.089 311.646 355.14 320.846C354.629 325.726 349.39 328.236 345.52 324.826C345.066 324.426 344.608 324.021 344.155 323.612L343.48 322.996C340.169 319.996 336.959 316.816 334.31 313.236C333.83 312.576 333.37 311.886 332.94 311.186C332.87 311.186 332.81 311.166 332.74 311.116L332.005 310.563C323.918 304.543 310.406 296.695 302.52 306.696C300.007 309.881 298.72 313.938 297.653 317.852L295.779 324.856C294.567 329.429 293.426 334.027 292.759 338.706C291.249 349.186 292.009 361.266 299.22 369.666C302.1 373.026 306.07 375.426 310.499 376.056C312.97 376.396 315.41 375.976 317.86 375.666C320.35 375.356 322.749 375.856 325.24 375.616C329.2 375.226 330.93 379.966 329.45 382.946C328.65 384.546 327.709 385.926 326.64 387.096C327.499 387.836 328.32 388.636 329.11 389.476C331.45 390.226 333.549 391.836 335.12 393.966C336.39 395.686 337.049 397.556 337.16 399.526C337.299 400.016 337.419 400.516 337.53 401.026L339.675 404.507C340.147 405.271 340.617 406.026 341.089 406.766C346.549 415.366 352.61 422.646 360.14 429.506C367.39 436.106 375.259 442.016 382.07 449.096L382.872 449.936C389.222 456.627 395.915 464.727 393.43 474.456C392.79 476.956 389.299 478.756 387.02 477.066C379.69 471.626 375.999 463.006 369.78 456.406C363.379 449.606 356.289 443.496 349.87 436.716C343.799 430.316 339.009 423.066 335.4 415.086C333.959 416.676 331.86 417.806 328.95 418.246C323.95 418.996 319.289 416.066 317.11 411.736C315.709 412.356 314.28 412.916 312.839 413.356C305.259 415.676 300.49 407.246 303.35 401.016C304.879 397.676 306.789 394.776 309.16 392.336C301.749 391.316 294.209 387.486 289.339 382.706C277.12 370.696 275.44 352.646 278.19 336.596C279.65 328.086 282.169 319.476 285.44 311.486C286.009 310.096 286.62 308.696 287.289 307.316C286.919 307.306 286.539 307.146 286.299 306.836C284.089 303.816 281.4 301.346 279.759 297.966C278.249 294.866 276.57 291.726 275.379 288.496C272.93 281.886 271.73 274.426 270.93 267.436C269.28 253.126 269.919 238.906 272.11 224.686C275.839 200.466 284.847 177.288 298.118 156.95C297.395 156.57 296.703 156.112 296.058 155.57L295.739 155.292L295.221 154.824C291.434 151.397 291.761 144.974 295.221 141.503L296.314 140.407C297.697 139.032 298.891 137.943 301.126 136.447C301.456 136.226 301.793 136.018 302.134 135.824C300.964 133.662 300.558 131.134 301.373 128.345C304.213 118.629 318.193 118.973 327.054 123.21C336.857 114.461 347.727 106.866 359.509 100.716C387.57 86.0756 419.299 75.8656 450.28 69.6256ZM305.23 325.526C310.47 323.816 317.43 327.406 322.14 329.566C328.11 332.306 333.19 336.356 338.11 340.636C340.56 342.776 340.999 346.276 340.39 349.266C340.329 349.566 340.27 349.876 340.199 350.186C339.549 353.376 335.989 355.886 332.839 355.796C326.249 355.616 323.11 349.926 319.379 345.106C318.94 345.886 318.39 346.606 317.709 347.146L317.249 347.506C315.701 348.684 313.995 349.626 311.949 349.536C310.499 349.466 309.11 349.096 307.829 348.426C304.629 346.736 303.22 342.596 304.089 339.226C304.629 337.106 305.869 335.446 307.489 334.296L306.885 333.883C305.593 332.983 304.415 332.035 303.496 330.637L303.289 330.306H303.369C302.369 328.586 303.02 326.246 305.23 325.526Z" fill="black"/>
<path fill-rule="evenodd" clip-rule="evenodd" d="M635.311 339.458C623.17 352.003 602.902 355.603 586.749 348.875C545.273 331.546 565.574 277.496 597.561 262.981C601.557 261.985 606.894 259.622 611.761 259.086C612.201 258.87 613.159 259.495 614.32 258.904C649.591 262.842 657.623 317.594 635.311 339.458M501.533 342.669C487.916 360.73 462.6 366.302 441.916 357.906C401.054 341.814 415.547 293.885 443.504 275.095C502.561 252.904 526.948 309.368 501.533 342.669M412.953 302.651C412.915 302.633 412.877 302.624 412.838 302.606C413.054 302.511 413.27 302.416 413.485 302.319C413.415 302.502 413.339 302.683 413.271 302.866C413.165 302.793 413.072 302.708 412.953 302.651M663.423 283.128C660.089 283.135 655.273 283.683 652.513 285.996C645.707 263.043 620.585 241.8 598.737 257.29C581.532 262.823 568.765 275.094 561.509 291.408C548.426 283.626 527.854 286.949 516.509 297.24C509.079 272.689 490.793 264.092 469.028 262.823C445.272 258.932 421.594 282.003 414.206 300.511C408.063 299.812 398.884 297.857 393.105 301.648C355.598 291.812 290.023 286.389 282.398 291.854C276.964 293.939 273.982 306.765 281.572 307.457C288.186 306.518 280.8 298.059 287.467 297.136C322.99 294.934 357.475 302.088 392.622 305.09C395.76 309.311 405.899 310.723 411.308 309.027C402.789 340.423 421.179 361.783 448.734 368.181C491.401 377.982 528.522 339.814 517.365 300.114C530.29 293.684 545.157 293.96 559.237 297.347C535.709 383.937 675.166 380.052 653.385 288.963C667.88 296.173 671.028 284.583 663.423 283.128" fill="black"/>
<path fill-rule="evenodd" clip-rule="evenodd" d="M466.347 372.476C483.489 370.396 500.105 375.644 516.863 378.289C525.711 379.685 534.57 380.727 543.524 381.115C545.325 381.194 547.127 381.239 548.929 381.276C549.097 379.69 549.985 378.233 551.908 377.36C555.852 375.573 559.008 374.767 563.338 374.939C567.301 375.096 571.279 375.503 575.181 376.218C582.268 377.517 589.387 380.465 594.571 385.588C606.568 397.441 604.742 416.48 595.472 429.39C576.319 456.068 541.364 457.306 511.426 456.958L508.664 456.922C481.404 456.532 442.404 460.597 430.02 429.583C425.466 418.178 426.098 404.959 431.674 394.02C438.325 380.973 452.325 374.178 466.347 372.476ZM551.495 416.894L551.251 416.904C538.683 417.389 526.117 417.729 513.542 417.952C513.918 421.181 514.302 424.411 514.742 427.634C515.086 430.169 515.455 432.702 515.839 435.232C516.002 436.303 516.599 437.966 516.43 439.027L516.369 439.447V439.447C517.015 439.739 517.6 440.209 518.036 440.892C518.188 441.128 518.298 441.366 518.408 441.603C528.171 441.68 538.677 441.491 548.63 439.716L548.649 439.5V439.5C548.83 438.228 549.359 437.372 550.061 436.786C550.761 432.731 550.697 428.411 550.967 424.388C551.136 421.889 551.319 419.392 551.495 416.894ZM503.938 418.123C494.879 418.277 485.816 418.396 476.76 418.285L472.648 418.222V418.222C473.516 422.88 474.461 427.522 475.247 432.211C476.066 437.098 471.764 440.205 468.041 440.08C468.459 440.148 468.876 440.219 469.294 440.278C480.926 441.923 493.004 441.487 504.809 441.474C504.174 437.767 504.431 433.584 504.336 430.49L504.318 430.011C504.137 426.046 504.011 422.085 503.938 418.123ZM442.406 417.268C442.721 419.69 443.332 422.061 444.247 424.268C448.114 433.592 456.979 437.943 466.359 439.776C464.731 439.214 463.439 437.864 463.113 435.551C462.299 429.801 462.007 423.955 461.985 418.116C455.448 418.055 448.867 417.916 442.406 417.268ZM585.585 415.277C580.931 416.375 575.523 415.872 570.956 416.079C566.679 416.274 562.399 416.443 558.121 416.616C558.323 419.537 558.519 422.456 558.733 425.375C559.008 429.147 559.034 433.134 559.757 436.89C568.366 433.952 576.08 429.24 581.868 421.705C583.31 419.828 584.601 417.625 585.585 415.277ZM464.38 387.775C456.633 389.609 449.3 393.484 445.36 400.573C443.021 404.78 441.992 409.766 442.19 414.679C448.738 413.917 455.398 413.628 462.027 413.389C462.049 412.195 462.077 411.003 462.113 409.813L462.215 406.764C462.396 400.947 462.487 393.643 464.38 387.775ZM504.48 388.484L501.069 388.101C491.596 387.022 482.129 385.889 472.655 386.538C471.284 386.633 469.892 386.782 468.497 386.987C470.172 393.029 470.031 400.125 470.73 406.106C471.001 408.419 471.342 410.713 471.72 412.998L473.364 412.921V412.921C483.529 412.37 493.704 412.031 503.877 411.628C503.876 409.717 503.887 407.806 503.917 405.894L503.955 403.982C504.071 399.099 503.755 393.598 504.48 388.484ZM552.049 387.709C542.128 389.31 531.874 389.651 522.128 389.663C518.235 389.668 514.344 389.429 510.456 389.084C510.709 391.155 510.841 393.249 511.032 395.291C511.415 399.416 511.854 403.536 512.331 407.652L512.757 411.253V411.253C525.261 410.686 537.764 410.073 550.265 409.438L552.029 409.344V409.344L552.524 402.423C552.86 397.808 553.231 393.194 553.753 388.6L553.361 388.458V388.458C552.9 388.269 552.463 388.008 552.049 387.709ZM556.358 389.427C556.905 395.952 557.207 402.504 557.609 409.041L565.85 408.601C567.224 408.526 568.597 408.449 569.971 408.37C575.311 408.062 582.173 406.445 587.453 407.954C587.856 403.154 586.484 398.478 582.152 395.254C574.548 389.59 564.865 391.607 556.358 389.427ZM528.201 331.093C540.473 324.065 571.264 316.882 573.214 338.967C574.111 349.13 566.555 357.551 557.732 361.309L557.401 361.447C549.126 364.849 534.459 368.691 527.298 361.314C521.338 355.174 529.243 344.165 536.649 349.195C540.455 351.779 548.466 349.875 552.713 348.646L552.979 348.568C557.562 347.221 563.672 342.91 561.777 337.267C560.1 332.275 552.964 331.363 548.495 331.201C541.824 330.962 535.332 332.511 528.722 333.015C527.675 333.095 527.352 331.579 528.201 331.093ZM579.036 295.581C595.692 294.801 606.053 312.987 602.223 327.888C601.561 330.459 598.685 332.983 595.909 332.694L595.209 332.629C594.854 332.595 594.497 332.55 594.169 332.46C591.533 331.73 589.17 328.988 589.362 326.146L589.413 325.317C589.802 318.278 589.039 310.168 580.673 308.464C573.578 307.018 569.617 313.847 569.533 320.133C569.517 321.249 568.263 322.028 567.276 321.428C562.147 318.307 561.259 312.098 563.218 306.751C565.701 299.976 571.915 295.914 579.036 295.581ZM455.433 299.481C467.554 295.437 480.631 301.898 486.5 312.614C488.559 313.21 490.615 314.797 490.329 317.227C489.916 320.723 489.294 322.927 486.87 325.578C483.079 329.725 475.978 327.605 474.402 322.5L474.335 322.269C472.545 315.67 465.281 311.316 458.664 313.626C450.934 316.324 451.158 324.488 445.736 329.244C445.099 329.803 444.335 329.892 443.571 329.523C437.812 326.74 438.847 318.364 440.9 313.57C443.593 307.279 448.827 301.684 455.433 299.481ZM438.925 262.674C448.747 252.652 474.359 242.954 481.078 261.461C482.358 264.986 479.633 269.739 475.963 270.47C469.953 271.666 464.621 269.057 458.651 269.525C453.818 269.906 448.777 271.521 444.913 274.515C434.211 282.807 431.857 296.832 424.4 307.386C424.037 307.9 423.332 307.684 423.265 307.078C421.567 291.713 428.167 273.65 438.925 262.674ZM567.021 252.808C573.539 250.506 580.92 250.703 587.472 252.745C594.072 254.803 600.131 258.711 604.799 263.817C606.917 266.135 608.877 268.693 610.449 271.416C611.284 272.859 612.162 275.84 613.111 277.615C618.245 280.579 620.44 287.334 615.843 292.14L615.636 292.351L615.021 292.961C612.55 295.407 608.824 296.467 605.451 295.49C597.903 293.306 596.986 287.361 594.373 281.051C592.647 276.883 589.69 273.195 586.105 270.486C577.632 264.086 563.739 262.047 553.538 265.063C552.995 265.224 552.357 264.532 552.744 264.03C554.677 261.526 555.791 259.471 558.379 257.451C561.006 255.401 563.873 253.92 567.021 252.808Z" fill="black"/>
</svg>
