<svg width="1645" height="2999" viewBox="0 0 1645 2999" fill="none" xmlns="http://www.w3.org/2000/svg">
<path fill-rule="evenodd" clip-rule="evenodd" d="M1177.44 2892.67C1179.81 2883.12 1175.96 2870.73 1173.74 2858.31C1170.29 2839.01 1162.14 2811.04 1146.62 2802.29C1143.87 2795.01 1067.5 2736.69 1027.67 2707.37C1007.21 2692.32 990.454 2663.92 986.307 2664.25C978.419 2644.85 977.405 2625.7 972.563 2603.23C990.559 2600.87 1021.3 2605.12 1035.48 2594.87C1038.02 2595.04 1037.98 2567.28 1038.35 2563.36C1027.67 2534.41 1001.41 1826.1 1027.67 1488.73C1030.45 1451.17 1037.69 1409.16 1030.54 1370.42C1042.26 1367.84 1049.28 1355.7 1049.32 1355.21C1077.35 1300.18 1034.36 1113.07 1007.41 1061.27C1028.81 1060.71 1056.99 1057.8 1070.24 1039.93C1076.52 1037.86 1080.47 1034.27 1083.51 1028.49C1087.02 1022.98 1090.27 1017.21 1093.2 1011.29C1107.46 981.668 1116.25 948.777 1111.5 916.14C1112.41 915.853 1117.07 915.823 1117.31 914.517C1117.76 906.493 1116.29 899.424 1113.88 891.846C1089.4 806.491 1059.92 722.456 1020.96 642.099C1001.44 599.09 961.047 583.395 919.195 567.249C899.061 559.337 878.918 550.206 857.905 545.025C857.64 543.555 858.895 539.082 856.141 539.446C852.74 540.156 853.411 545.625 852.15 548.694C803.561 508.915 834.374 488.417 805.076 466.632C774.76 450.895 756.788 450.256 723.363 453.662C711.032 454.018 701.165 459.577 698.257 471.991C687.657 497.675 662.82 516.579 635.724 522.374C633.485 518.388 627.329 506.957 623.881 510.565C584.748 511.901 509.125 542.817 472.497 553.566C435.727 562.957 436.193 572.965 426.573 612.921C409.118 684.121 412.389 951.531 457.939 1007.88C457.939 1007.88 482.709 1024.43 495.147 1028.49C494.868 1054.83 499.279 1094.08 495.147 1119.84C485.844 1166.57 474.505 1213.49 464.142 1260.46C464.096 1265.7 422.625 1343.27 442.064 1328.91C446.076 1330.89 453.129 1339.17 457.45 1341.02C436.798 1388.09 440.6 1445.87 442.064 1504.01C442.43 1538.64 434.34 1576.59 426.573 1612.05C369.11 1912.51 330.131 2253.67 308.794 2554.64C307.924 2566.96 307.353 2576.37 306.941 2585.13C306.517 2588.13 310.572 2588.08 312.077 2586.55L314.154 2584.53C316.467 2585.19 320.164 2586.2 322.508 2586.84C322.806 2596.69 321.83 2606.93 320.639 2615.91C319.544 2624.5 305.59 2662.01 308.794 2670.39C298.157 2669.82 278.188 2687.28 268.661 2706.17C263.775 2710.54 248.146 2717.73 244.562 2724.45C237.307 2731.44 186.916 2760.65 186.916 2760.65C168.363 2775.5 108.677 2834.44 113.547 2846.41C113.547 2846.41 112.999 2850.15 112.815 2851.39C102.571 2911 119.629 2908.51 174.819 2917.28C255.441 2931.5 331.695 2888.36 399.831 2851.8C422.473 2836.53 444.528 2840.59 442.064 2822.14C437.595 2799.37 436.801 2717.86 410.957 2719.7C415.207 2715.03 414.142 2672.25 410.957 2664.25C408.934 2643.66 427.567 2624.43 426.573 2603.23C437.399 2604.04 459.515 2609.11 464.142 2597.04C463.934 2595.82 458.822 2595.85 457.939 2595.56L458.032 2594.87L457.45 2594.74C502.521 2435.87 612.318 1706.28 731.536 1650.28C732.273 1656.27 745.39 1649.17 753.334 1650.28C790.209 1937.99 832.427 2209.18 854.948 2516.91C857.2 2526.04 862.41 2589.69 864.609 2600.25C864.609 2600.25 871.513 2605.95 875.584 2607.08C876.815 2639.55 872.645 2707.3 872.502 2707.37L870.346 2712.65C857.788 2740.97 848.432 2778.87 864.609 2806.62C852.603 2805.75 847.361 2815.98 846.824 2826.61C839.749 2873.24 1026.8 2914.61 1070.24 2917.28C1084.52 2919.77 1186.27 2901.62 1177.44 2892.67Z" fill="white"/>
<path fill-rule="evenodd" clip-rule="evenodd" d="M1160.34 2896.52C1136.76 2901.93 1113.76 2910.87 1090.47 2916.15C1014.64 2910.56 940.201 2885.04 873.683 2853.55C854.401 2845.11 843.095 2830.14 851.714 2810.92C879.93 2845.8 984.376 2870.06 1032.19 2885.09C1061.93 2891.61 1095.7 2906.37 1125.72 2892.6C1144.75 2889.35 1166.41 2880.22 1173.73 2863.08C1174.24 2870.39 1173.49 2877.65 1172.85 2884.93C1173.6 2893.86 1169.24 2895.07 1160.34 2896.52V2896.52ZM878.747 2602.62C878.122 2601.14 876.14 2601.1 875.39 2602.45C873.947 2602.34 872.41 2602.19 870.878 2602.13C873.504 2593.82 873.873 2585.13 872.569 2576.56C870.922 2552.91 869.036 2529.28 867.039 2505.67C846.446 2279.33 822.726 2052.31 782.28 1828.47C782.766 1828.12 783.085 1827.59 782.999 1826.91C780.971 1811.05 776.686 1795.59 773.694 1779.89C770.676 1764.06 768.13 1748.14 765.347 1732.26C764.516 1727.52 763.671 1722.78 762.789 1718.04C763.423 1706.53 760.643 1694.41 759.175 1683.26C758.144 1675.43 756.657 1667.42 754.609 1659.59C755.472 1656.95 755.022 1653.83 752.904 1651.84C752.875 1651.82 752.844 1651.79 752.816 1651.77C752.974 1651.24 753.148 1650.75 753.334 1650.28C754.79 1646.69 757.941 1645.07 760.22 1642.51C766.763 1641.33 773.456 1641.01 780.054 1642.05C781.04 1642.24 781.772 1640.88 780.777 1640.34C754.261 1624.83 721.253 1639.79 701.697 1660.01C641.597 1745.43 619.859 1853.88 586.65 1951.88C526.534 2165.05 484.365 2383.1 436.072 2598.93C397.872 2597.15 359.761 2591.58 321.478 2592.54C320.04 2589.29 317.568 2585.82 314.624 2584.42C338.41 2255.4 379.279 1927.6 440.128 1603.35C446.881 1518.42 436.316 1431.83 461.504 1348.78C640.268 1419.15 840.155 1429.62 1027.67 1391.78C992.608 1789.45 974.087 2191.28 1022.25 2588.87C1006.85 2594.95 990.323 2597.57 973.954 2599.48C942.478 2603.28 910.39 2603.76 878.747 2602.62V2602.62ZM403.1 2696.35C400.269 2701.85 403.272 2707.58 409.206 2709.14C391.455 2713.82 388.162 2732.7 374.17 2741.32C372.859 2738.84 369.152 2738.42 366.672 2737.7C359.197 2709.9 350.568 2677.19 315.548 2666.97C317.776 2664.12 317.468 2660.76 317.364 2657.39C319.966 2644.16 329.335 2614.63 323.531 2599.46C355.708 2606.79 388.738 2609.79 421.364 2614.55C414.726 2638.69 409.101 2675.14 403.1 2696.35V2696.35ZM425.482 2813.92C426.534 2813.64 427.586 2813.34 428.618 2813.03C433.752 2835.55 398.962 2842.9 381.803 2850.89C355.943 2861.6 330.114 2872.36 304.346 2883.2C252.171 2909.38 203.168 2916.75 145.167 2898.09C108.256 2891.02 115.278 2883.96 109.867 2855.49C146.876 2905.26 222.688 2883.9 269.751 2862.38C312.526 2846 355.611 2830.26 399.863 2816.48C408.704 2818.69 417.129 2816.38 425.482 2813.92V2813.92ZM801.224 994.243C778.939 1000.28 756.342 1003.41 733.684 1007.88C735.659 993.338 738.562 978.798 738.614 964.063C758.445 976.165 779.522 986.053 801.224 994.243V994.243ZM590.954 847.123C638.579 837.194 689.005 840.82 734.004 859.683C749.455 864.822 770.329 878.212 786.374 872.013C774.472 909.784 789.462 948.698 804.964 983.073C769.381 971.208 738.052 950.336 705.654 932.033C717.784 916.066 607.468 896.713 595.493 897.133C592.094 880.62 588.044 864.244 584.493 847.753C586.474 848.493 588.934 847.503 590.954 847.123V847.123ZM837.048 864.988C837.302 865.175 837.49 865.418 837.577 865.739C884.191 872.196 931.003 893.41 978.866 887.26C1011.2 883.087 996.314 901.578 974.776 900.884C926.185 905.753 881.133 877.027 835.925 867.234L837.048 864.988ZM862.489 552.799C862.376 553.309 862.261 553.82 862.154 554.333C861.674 554.333 861.195 554.283 860.695 554.143C860.384 553.842 860.089 553.532 859.788 553.226C860.671 552.976 861.585 552.822 862.489 552.799V552.799ZM1191.04 2886.99C1190.37 2875.71 1184.45 2864.41 1175.98 2856.83C1181.64 2833.68 1170.31 2804.19 1146.14 2794.22C1139.57 2783.45 1125.31 2778.71 1115 2771.03C1123.65 2770.5 1131.57 2764.34 1124.93 2757.72C1110.89 2761.98 1097.31 2767.73 1083.93 2773.49C1080.32 2774.25 1071.74 2781.41 1071.06 2775.02C1073.61 2769.94 1093.22 2764.8 1099.61 2761.27C1094.87 2758.28 1090.12 2755.27 1085.4 2752.25C1093.79 2752.05 1104.57 2745.75 1096.35 2738.6C1074.21 2743.53 1051.18 2747.88 1031.66 2759.09C1015.56 2755.09 1062.44 2740.75 1066.76 2740.06C1059.41 2735.06 1052.29 2729.83 1045.6 2724.18C1052.94 2724.04 1068.24 2716.66 1058.45 2710.07C1046.14 2706.9 1029.04 2717.06 1016.81 2720.31C1016.8 2720.31 1016.8 2720.32 1016.8 2720.32C1007.6 2723.73 998.475 2727.41 989.434 2731.22C985.784 2732.76 984.234 2727.72 987.834 2726.2C1001.88 2720.28 1016.1 2714.69 1030.62 2709.86C1026.66 2705.55 1022.93 2701.05 1019.2 2696.54C1020.19 2689.48 1012.89 2683.27 1010.19 2676.88C1010.76 2673.61 1009.12 2668.47 1005.23 2667.79C1002.15 2664.8 997.495 2664.61 993.195 2665.29C986.372 2652.17 980.483 2631.75 978.32 2615.47C996.394 2613.06 1017.37 2612.98 1032.99 2603.01C1037.64 2602.72 1042.27 2599.34 1042.4 2593.74C1042.86 2573.53 1040.86 2553.62 1039.07 2533.51C1037.28 2513.42 1035.59 2493.33 1034.01 2473.22C1007.34 2150.73 1012.15 1826.54 1037.51 1504.13C1040.22 1466.33 1041.58 1427.68 1035.3 1390.14C1043.09 1387.73 1072.22 1382.72 1069.97 1372.16C1095.25 1307.79 1057.87 1142.93 1030.38 1078.14C1050.84 1076.95 1075.39 1072.56 1088.82 1055.69C1101.76 1051.13 1106.3 1035.96 1112.75 1025.03C1126.62 995.908 1135.6 963.131 1132.09 930.703C1146.42 926.907 1128.66 887.556 1127.08 876.963C1103.33 798.613 1076.12 720.692 1040.46 646.912C1027.73 619.937 1005.41 598.625 978.103 586.714C945.273 572.399 912.284 557.587 877.954 547.113C878.163 541.265 872.046 538.975 867.873 541.089C867.607 541.003 867.339 540.915 867.066 540.85C862.846 539.848 856.456 541.495 853.061 545.024C841.933 528.721 839.053 508.093 834.947 488.942C818.396 506.255 833.678 564.213 859.454 569.203C842.665 690.311 701.915 661.582 659.085 573.329C649.792 556.28 643.525 539.515 634.254 522.163C661.005 527.642 688.365 512.873 698.064 487.211C700.054 483.053 701.775 480.733 705.445 478.133C709.954 474.933 708.804 466.793 702.434 467.003C677.312 472.64 693.812 512.643 632.704 519.653C630.493 516.233 627.884 512.993 625.134 511.323C623.972 510.044 620.302 509.685 618.323 511.153C572.343 513.919 527.493 525.543 483.394 538.062C445.519 547.373 405.804 567.611 396.425 608.825C378.475 674.366 407.108 1000.09 456.534 1040.36C464.684 1048.25 474.464 1053.68 485.054 1057.5C474.918 1129.93 459.118 1201.9 445.667 1273.88C444.661 1286.3 423.113 1355.19 450.464 1343.85C451.206 1344.21 451.958 1344.56 452.707 1344.91C451.091 1348.2 449.57 1351.53 448.099 1354.91C443.376 1365.74 439.617 1376.69 437.893 1388.42C436.1 1400.61 435.746 1412.94 435.203 1425.24C435.001 1429.81 434.835 1434.3 434.778 1438.77C429.495 1481.94 429.602 1526 429.175 1569.37C405.279 1733.33 370.971 1896.06 351.469 2060.88C327.75 2236.97 308.934 2413.78 297.993 2591.14C297.619 2599.28 307.048 2600.89 311.633 2596.37C312.29 2596.56 312.949 2596.74 313.609 2596.92C313.62 2604.03 313.009 2611.17 312.184 2618.23C310.616 2628.53 298.822 2654.45 301.792 2663.8C291.056 2662.31 273.772 2664.49 270.656 2673.29C258.366 2688.93 259.152 2710.26 244.562 2724.45C258.605 2727.52 272.554 2731.64 286.174 2735.96C288.989 2737.48 287.285 2741.59 283.725 2740.53C276.163 2738.27 268.581 2735.94 260.957 2733.83V2733.82C253.585 2731.78 246.181 2729.94 238.681 2728.54C238.422 2728.75 238.511 2729.21 238.837 2729.39C233.47 2733.55 227.377 2737.17 221.266 2740.64C225.206 2741.5 277.554 2755.52 261.892 2759.91C246.706 2753.61 230.879 2747.59 214.461 2744.47C207.357 2748.5 200.407 2752.69 193.392 2756.82C196.778 2757.53 253.21 2769.78 233.652 2773.33C218.483 2767.81 202.76 2764.11 186.916 2760.65C167.49 2772.2 148.033 2783.71 128.861 2795.57C120.843 2800.51 112.126 2805.27 106.977 2812.69C100.137 2822.56 100.056 2834.89 104.757 2846.18C91.0342 2905.25 115.251 2907.53 171.697 2919.94C251.711 2940.41 321.104 2891.3 390.638 2864.62C405.162 2857.82 421.216 2852.71 434.233 2843.75C446.525 2835 454.627 2816.61 443.37 2804C451.15 2789.46 440.76 2753.81 438.277 2736.77C436.228 2726.02 434.849 2708.68 418.876 2708.12C423.147 2705.35 423.011 2700.13 421.59 2695.94C419.72 2675.3 426.137 2638.64 427.679 2615.33C439.888 2616.21 457.994 2619.79 464.33 2606.26C466.777 2602.35 463.619 2598.16 459.618 2597.63C459.62 2597.62 459.621 2597.61 459.623 2597.61C460.478 2597.67 460.236 2597.58 459.666 2597.44C524.393 2330.3 566.14 2056.61 659.545 1797.2C680.927 1747.09 690.452 1682.47 738.232 1650.12C738.884 1654.17 739.571 1658.83 742.111 1661.73C742.249 1662.26 742.392 1662.78 742.525 1663.3C744.194 1669.82 746.073 1676.27 747.732 1682.78C785.114 1970.42 828.272 2257.45 849.012 2547.01C852.155 2560.42 847.042 2608.15 865.818 2606.01C868.141 2607.32 871.173 2607.95 873.692 2608.57C869.812 2625.78 870.896 2651.77 871.015 2667.46C870.746 2683.14 868.156 2699.38 869.904 2714.9C871.914 2725.11 891.004 2718.96 887.884 2708.7C887.447 2679.28 885.665 2642.99 880.612 2610.33C909.868 2616.04 939.855 2617.42 969.645 2616.05C968.047 2633.3 973.157 2654.87 979.104 2669.01C961.267 2675 943.991 2683.06 930.204 2695.22C917.148 2707.08 905.15 2734.28 882.134 2725.29C875.754 2722.45 868.764 2717.53 866.564 2711.19C864.433 2709.6 865.548 2713.42 865.964 2714.33L865.094 2714.63C859.8 2711.26 850.076 2746.27 849.264 2750.64C845.199 2769.39 840.489 2790.75 850.114 2808.28C829.432 2816.87 831.659 2844.79 846.994 2856.49C907.875 2895.91 1009.39 2928.09 1084.95 2933.49C1098.32 2934.42 1112.39 2930.5 1125.11 2926.29C1140.06 2922.3 1155.06 2918.03 1169.84 2913.33C1182.86 2910.34 1192.66 2899.18 1191.04 2886.99V2886.99Z" fill="black"/>
<path fill-rule="evenodd" clip-rule="evenodd" d="M942.529 304.003C940.377 285.088 943.163 245.552 943.349 243.15C944.529 227.965 937.415 168.002 923.964 173.527C901.402 155.666 871.351 151.722 843.252 149.838C784.884 145.924 722.791 154.909 677.721 194.189C655.433 214.588 633.733 244.257 635.477 275.149C615.227 304.431 586.677 344.598 611.909 378.831C620.486 389.768 634.117 393.841 644.892 402.124C666.563 419.604 680.16 444.69 702.037 462.066C759.997 514.149 858.414 525.029 915.36 465.789C959.395 422.885 952.275 358.699 944.529 304.003C939.322 267.23 946.729 340.904 942.529 304.003Z" fill="white"/>
<path fill-rule="evenodd" clip-rule="evenodd" d="M765.28 69.6251C780.89 66.4751 796.919 64.5151 812.86 65.1051L814.089 65.1528C826.083 65.6322 841.273 66.6926 851.736 73.6671C852.338 73.0631 853.306 72.7531 854.184 73.1721C866.618 79.1071 880.294 83.3981 893.386 87.6621C906.418 91.9051 919.938 94.7061 933.597 95.8351C938.736 96.2601 943.134 101.809 939.88 106.786C939.106 107.972 938.352 109.17 937.601 110.371C938.857 110.24 940.113 110.105 941.369 109.978C945.502 109.562 949.631 113.973 949.386 117.997C949.233 120.528 948.96 123.029 948.556 125.5C950.13 125.467 951.695 125.703 953.207 126.342C960.863 129.575 960.33 138.694 959.757 145.632C958.963 155.26 955.362 165.458 948.676 172.664C953.668 177.849 957.202 184.041 959.31 191.395C960.839 196.765 961.69 202.485 961.27 208.075L961.136 209.749C960.617 215.815 959.584 222.531 955.22 226.895C952.98 229.145 950.22 229.965 947.589 229.705C949.18 243.685 950.2 257.745 951.16 271.755L951.61 278.451C953.752 310.831 955.361 343.422 954.94 375.855C954.549 406.165 948.56 435.585 929.97 460.195C913.039 482.605 888.73 499.125 861.23 505.405C846.41 508.795 831.28 509.035 816.28 506.875C809.009 505.825 801.69 504.215 794.789 501.675C787.15 498.855 781.66 494.705 776.52 488.485C774.089 485.535 775.259 479.255 780.1 479.845C787.421 480.733 794.105 481.803 801.124 483.968L802.129 484.285C809.12 486.525 816.36 488.195 823.669 488.905C838.64 490.355 853.839 488.895 868.18 484.355C891.53 476.955 911.64 460.465 924.53 439.745C939.83 415.185 941.56 387.305 941.339 359.065C941.102 328.077 940.094 297.07 938.449 266.114L938.169 260.955C937.299 245.025 936.459 229.085 935.72 213.145C935.49 208.145 935.14 203.105 934.509 198.115C928.74 194.735 923.57 190.075 920.2 184.325C913.43 187.125 906.31 189.145 899.759 190.755C884.585 194.487 868.831 195.393 853.386 193.056C849.22 194.777 844.971 196.29 840.657 197.592C839.491 198.109 838.325 198.617 837.16 199.115C826.759 203.565 816.209 207.335 805.23 210.095L802.533 210.768C796.755 212.192 790.479 213.595 784.33 214.035C783.32 214.425 782.23 214.755 781.039 215.045C775.44 216.405 769.629 216.835 763.89 216.355C758.299 215.885 754.259 210.235 757.339 204.945C759.589 201.085 761.86 197.235 764.15 193.395C756.18 196.715 747.95 199.475 739.65 201.815C731.27 204.175 722.77 206.165 714.259 207.995C709.709 208.965 705.14 209.825 700.6 210.795C697.35 211.485 692.36 211.845 689.709 213.985C686.78 216.335 685.95 221.815 684.839 225.195C683.379 229.585 682.009 233.995 680.759 238.455C678.27 247.355 676.23 256.385 674.65 265.505C673.07 274.635 672.009 283.855 671.419 293.105C670.83 302.345 671.089 311.645 670.14 320.845C669.629 325.725 664.39 328.235 660.52 324.825C660.066 324.425 659.608 324.021 659.155 323.612L658.48 322.995C655.169 319.995 651.959 316.815 649.31 313.235C648.83 312.575 648.37 311.885 647.94 311.185C647.87 311.185 647.81 311.165 647.74 311.115L647.005 310.562C638.918 304.543 625.406 296.694 617.52 306.695C615.007 309.881 613.72 313.938 612.653 317.851L610.779 324.856C609.567 329.428 608.426 334.026 607.759 338.705C606.249 349.185 607.009 361.265 614.22 369.665C617.1 373.025 621.07 375.425 625.499 376.055C627.97 376.395 630.41 375.975 632.86 375.665C635.35 375.355 637.749 375.855 640.24 375.615C644.2 375.225 645.93 379.965 644.45 382.945C643.65 384.545 642.709 385.925 641.64 387.095C642.499 387.835 643.32 388.635 644.11 389.475C646.45 390.225 648.549 391.835 650.12 393.965C651.39 395.685 652.049 397.555 652.16 399.525C652.299 400.015 652.419 400.515 652.53 401.025L654.675 404.507C655.147 405.271 655.617 406.025 656.089 406.765C661.549 415.365 667.61 422.645 675.14 429.505C682.39 436.105 690.259 442.015 697.07 449.095L697.872 449.936C704.222 456.627 710.915 464.726 708.43 474.455C707.79 476.955 704.299 478.755 702.02 477.065C694.69 471.625 690.999 463.005 684.78 456.405C678.379 449.605 671.289 443.495 664.87 436.715C658.799 430.315 654.009 423.065 650.4 415.085C648.959 416.675 646.86 417.805 643.95 418.245C638.95 418.995 634.289 416.065 632.11 411.735C630.709 412.355 629.28 412.915 627.839 413.355C620.259 415.675 615.49 407.245 618.35 401.015C619.879 397.675 621.789 394.775 624.16 392.335C616.749 391.315 609.209 387.485 604.339 382.705C592.12 370.695 590.44 352.645 593.19 336.595C594.65 328.085 597.169 319.475 600.44 311.485C601.009 310.095 601.62 308.695 602.289 307.315C601.919 307.305 601.539 307.145 601.299 306.835C599.089 303.815 596.4 301.345 594.759 297.965C593.249 294.865 591.57 291.725 590.379 288.495C587.93 281.885 586.73 274.425 585.93 267.435C584.28 253.125 584.919 238.905 587.11 224.685C590.839 200.465 599.847 177.287 613.118 156.949C612.395 156.569 611.703 156.111 611.058 155.569L610.739 155.291L610.221 154.823C606.434 151.396 606.761 144.973 610.221 141.502L611.314 140.407C612.697 139.032 613.891 137.943 616.126 136.446C616.456 136.225 616.793 136.017 617.134 135.823C615.964 133.661 615.558 131.133 616.373 128.344C619.213 118.628 633.193 118.972 642.054 123.209C651.857 114.46 662.727 106.865 674.509 100.715C702.57 86.0751 734.299 75.8651 765.28 69.6251ZM620.23 325.525C625.47 323.815 632.43 327.405 637.14 329.565C643.11 332.305 648.19 336.355 653.11 340.635C655.56 342.775 655.999 346.275 655.39 349.265C655.329 349.565 655.27 349.875 655.199 350.185C654.549 353.375 650.989 355.885 647.839 355.795C641.249 355.615 638.11 349.925 634.379 345.105C633.94 345.885 633.39 346.605 632.709 347.145L632.249 347.505C630.701 348.684 628.995 349.626 626.949 349.535C625.499 349.465 624.11 349.095 622.829 348.425C619.629 346.735 618.22 342.595 619.089 339.225C619.629 337.105 620.869 335.445 622.489 334.295L621.885 333.882C620.593 332.983 619.415 332.035 618.496 330.636L618.289 330.305H618.369C617.369 328.585 618.02 326.245 620.23 325.525Z" fill="black"/>
<path fill-rule="evenodd" clip-rule="evenodd" d="M950.311 339.458C938.17 352.003 917.902 355.603 901.749 348.875C860.273 331.546 880.574 277.496 912.561 262.981C916.557 261.985 921.894 259.622 926.761 259.086C927.201 258.87 928.159 259.495 929.32 258.904C964.591 262.842 972.623 317.594 950.311 339.458M816.533 342.669C802.916 360.73 777.6 366.302 756.916 357.906C716.054 341.814 730.547 293.885 758.504 275.095C817.561 252.904 841.948 309.368 816.533 342.669M727.953 302.651C727.915 302.633 727.877 302.624 727.838 302.606C728.054 302.511 728.27 302.416 728.485 302.319C728.415 302.502 728.339 302.683 728.271 302.866C728.165 302.793 728.072 302.708 727.953 302.651M978.423 283.128C975.089 283.135 970.273 283.683 967.513 285.996C960.707 263.043 935.585 241.8 913.737 257.29C896.532 262.823 883.765 275.094 876.509 291.408C863.426 283.626 842.854 286.949 831.509 297.24C824.079 272.689 805.793 264.092 784.028 262.823C760.272 258.932 736.594 282.003 729.206 300.511C723.063 299.812 713.884 297.857 708.105 301.648C670.598 291.812 605.023 286.389 597.398 291.854C591.964 293.939 588.982 306.765 596.572 307.457C603.186 306.518 595.8 298.059 602.467 297.136C637.99 294.934 672.475 302.088 707.622 305.09C710.76 309.311 720.899 310.723 726.308 309.027C717.789 340.423 736.179 361.783 763.734 368.181C806.401 377.982 843.522 339.814 832.365 300.114C845.29 293.684 860.157 293.96 874.237 297.347C850.709 383.937 990.166 380.052 968.385 288.963C982.88 296.173 986.028 284.583 978.423 283.128" fill="black"/>
<path fill-rule="evenodd" clip-rule="evenodd" d="M869.042 429.159C861.675 431.292 853.768 431.483 846.259 429.28C839.448 427.281 832.455 422.882 827.442 417.062C822.989 411.891 820.105 405.608 820.219 398.901C820.232 398.135 820.506 397.495 820.927 396.999C821.38 396.465 822.014 396.098 822.693 395.939C823.391 395.775 824.128 395.833 824.757 396.118C825.326 396.377 825.813 396.816 826.118 397.457C826.888 398.469 827.655 399.466 828.426 400.435C834.62 408.084 840.618 413.799 849.932 415.849C854.985 416.962 860.032 416.469 864.663 414.771C869.62 412.954 874.102 409.759 877.613 405.671C879.2 403.824 881.073 403.07 882.905 403.057C884.982 403.043 887.034 404.007 888.579 405.549C890.099 407.065 891.116 409.124 891.209 411.279C891.29 413.169 890.673 415.144 889.032 416.907C883.626 422.711 876.621 426.963 869.042 429.159ZM868.814 333.367C876.366 337.957 887.872 348.66 879.748 360.039C870.186 370.073 856.418 358.569 849.634 353.366C843.343 349.334 836.275 359.704 842.112 364.413C891.136 400.708 911.031 334.567 872.634 327.97C868.406 327.243 866.836 331.947 868.814 333.367ZM798.175 313.17C795.748 311.618 792.893 311.085 789.729 312.525C787.256 313.649 782.919 317.398 779.901 322.325C777.836 325.696 776.372 329.651 776.677 333.771C776.748 334.727 776.394 335.433 775.837 335.954C775.396 336.366 774.76 336.669 774.013 336.764C773.379 336.844 772.669 336.772 772.091 336.591C770.993 336.249 770.412 335.536 770.193 334.955C768.08 329.343 768.99 323.08 771.358 317.43C774.555 309.805 780.359 303.418 784.162 301.358C790.67 297.833 798.347 297.671 804.864 301.262C810.411 304.319 813.88 309.253 817.33 314.283C818.063 315.353 818.791 316.414 819.544 317.457C821.051 319.546 821.201 321.618 820.617 323.395C819.971 325.364 818.321 327.025 816.259 327.895C814.353 328.698 812.141 328.812 810.183 327.986C808.529 327.288 807.012 325.929 806.051 323.622C804.434 319.736 801.739 315.449 798.175 313.17V313.17ZM921.441 321.814C919.779 322.68 918.478 322.941 916.634 322.389C915.615 322.083 914.607 321.496 913.818 320.707C913.036 319.925 912.472 318.952 912.252 317.874C911.713 315.211 910.256 312.719 908.181 311.095C906.406 309.706 904.167 308.97 901.683 309.385C899.002 309.833 896.449 311.552 894.69 313.579C894.102 314.257 893.641 315.027 893.178 315.792C892.311 317.223 891.469 318.553 890.274 319.603C889.821 320.003 889.138 320.28 888.477 320.28C888.208 320.28 887.935 320.236 887.676 320.155C885.008 317.477 884.495 315.446 884.581 313.431C884.671 311.319 885.504 309.179 886.85 307.183C890.007 302.501 896.003 298.663 900.048 297.793C905.589 296.603 911.091 298.032 915.503 301.126C920.042 304.31 923.405 309.254 924.454 314.825C924.706 316.167 924.599 317.615 924.088 318.871C923.589 320.098 922.719 321.149 921.441 321.814ZM810.394 263.252C807.069 266.492 803.134 266.994 799.153 267.44C796.941 267.69 795.175 267.892 793.437 268.284C788.661 269.362 783.939 270.986 779.632 273.325C775.129 275.77 770.222 278.718 766.692 282.495C765.853 283.394 765.062 284.337 764.269 285.282C763.547 286.144 762.851 286.974 762.117 287.774C761.274 288.693 760.474 289.656 759.679 290.617C759.187 291.427 759.09 291.627 758.99 291.834C758.841 292.146 758.668 292.495 758.47 292.869C758.198 293.382 757.881 293.943 757.548 294.452C756.994 295.382 756.697 295.639 756.44 295.753C756.014 295.943 755.61 296.036 755.218 295.986C754.851 295.938 754.504 295.762 754.162 295.473C752.455 294.031 751.952 291.664 752.004 289.151C752.082 285.338 753.488 281.117 754.785 278.522C757.799 272.492 761.979 266.224 767.006 261.724C772.742 256.587 779.018 252.698 786.226 250.018C790.705 248.352 795.891 246.823 800.771 247.016C804.284 247.155 807.637 248.199 810.407 250.807C812.107 252.408 812.923 254.684 812.923 256.96C812.923 259.28 812.076 261.614 810.394 263.252ZM928.203 292.917C927.991 293.264 927.699 293.503 927.373 293.646C927.032 293.797 926.651 293.84 926.285 293.778C925.921 293.717 925.575 293.552 925.3 293.3C925.037 293.058 924.837 292.737 924.747 292.344C922.54 282.649 918.253 275.435 909.104 270.783C904.604 268.495 899.429 267.041 894.53 265.882C893.106 265.545 891.602 265.327 890.087 265.106C885.339 264.412 880.557 263.618 877.462 259.781C875.597 257.469 874.814 254.512 875.256 251.809C875.673 249.263 877.161 246.929 879.865 245.53C886.597 242.049 894.964 245.464 901.763 248.374C902.267 248.59 902.762 248.802 903.246 249.006C909.895 251.813 915.959 255.517 920.944 260.815C924.899 265.018 928.563 271.231 930.039 277.623C931.267 282.94 930.978 288.369 928.203 292.917Z" fill="black"/>
</svg>
