<svg width="1698" height="2317" viewBox="0 0 1698 2317" fill="none" xmlns="http://www.w3.org/2000/svg">
<path fill-rule="evenodd" clip-rule="evenodd" d="M496.5 2312C767.948 2312 988 2091.95 988 1820.5C988 1549.05 767.948 1329 496.5 1329C225.052 1329 5 1549.05 5 1820.5C5 2091.95 225.052 2312 496.5 2312Z" fill="#D9C0C0" stroke="white" stroke-width="8.5"/>
<path fill-rule="evenodd" clip-rule="evenodd" d="M1680.28 1178.85C1672.84 1176.72 1663.55 1176.17 1655.41 1175.78C1626.64 1174.08 1597.31 1187.8 1569.1 1193.98C1556.76 1197.04 1543.68 1200.63 1530.47 1203.31C1518.74 1204.9 1506.61 1206.1 1494.42 1206.86C1484.56 1207.15 1473.1 1206.4 1469.73 1216.76C1449.92 1220.6 1432.39 1222.2 1413.5 1218.93C1415.27 1212.91 1416.28 1206.62 1414.45 1200.14C1415.37 1198.61 1416.63 1196.53 1417.3 1195.13H1415.03C1381.89 1181.86 1346.05 1172.8 1312.73 1159.05C1269.24 1143.38 1205.19 1113.09 1154.95 1092.41C1158.35 1073.75 1159.62 1054.79 1158.17 1036.36L1160.19 1034.73C1160.85 1031.11 1161.88 1026.78 1163.75 1023.49C1166.12 1017.2 1166.18 1008.62 1167.12 1001.51C1169.08 987.602 1170.39 966.664 1166.82 950.153C1165.26 927.763 1150.17 910.502 1133.9 896.656C1113.92 876.895 1093.91 857.614 1074.41 837.089C966.463 727.029 957.927 588.408 788.943 546.278L788.861 545.624C787.529 544.138 786.984 542.96 785.467 545.308C779.888 543.169 772.931 543.348 768.258 539.733C759.963 532.165 754.078 523.429 750.23 513.062C747.266 493.464 749.363 463.26 732.196 450.72C713.129 439.297 611.821 431.164 603.084 456.139C597.664 461.231 595.198 467.699 593.504 475.619C587.859 486.297 584.298 498.138 578.612 508.981C566.523 533.3 558.687 527.91 537.344 533.468C535.027 528.304 527.994 529.344 522.869 530.094C460.8 538.818 385.126 562.626 358.551 620.974L360.813 620.685C314.941 706.881 344.69 816.5 352.894 907.844C359.531 989.039 351.941 1070.62 333.906 1146.36C311.769 1226.7 310.498 1316.58 354.42 1389.3C358.884 1397.63 364.32 1409.39 373.938 1404.17C379.208 1408.16 385.128 1410.91 393.306 1413.3C395.56 1414.94 397.895 1417.69 400.255 1418.86C400.366 1419.02 404.165 1416.83 404.365 1416.77C411.547 1427.02 805.82 1461.27 846.735 1466.59C882.783 1470.94 930.415 1482.04 959.791 1456.03C984.067 1449.09 1009.47 1431.03 1028.87 1413.1C1040.64 1583.86 1047.15 1933.57 1057.66 1936.01C1062.25 1937.56 1068.46 1939.43 1073.66 1940.92C1073.69 1953.19 1074.61 1967.13 1073.64 1979.19C1072.03 1992.81 1067.94 2008.89 1066.09 2023.21C1058.15 2022.68 1055.81 2030.65 1054.89 2036.07C1048.03 2080.81 1048.23 2116.87 1048.72 2166.04C1129.39 2213.56 1223.93 2239.7 1314.69 2270.41C1323.39 2276.94 1342.23 2269.88 1352.26 2268.11C1387.11 2261.25 1426.72 2240.95 1417.92 2203.73C1411.48 2175.7 1384.43 2159.58 1361.67 2143.09C1336.76 2125.04 1310.51 2107.01 1287.6 2085.52C1269.22 2068.21 1255.5 2054.78 1240.18 2035.24C1233.38 2026.15 1226.13 2011.22 1216.99 2004.53C1226.65 1993.07 1207.13 2003.81 1199.74 2004.47C1195.39 1984.01 1190.01 1964.36 1183.56 1944.73L1189.83 1945.01C1210.43 1925.77 1221.98 1833.41 1223.41 1806.01C1233.74 1627.38 1233.49 1421.5 1192.07 1271.07C1223.53 1290.44 1258.03 1306.63 1289.32 1325.79C1309.05 1337.35 1329.07 1353.4 1351.19 1359.01C1352.63 1363.15 1357.9 1364.75 1360.78 1360.7C1364.74 1361.19 1369.84 1359.55 1370.27 1357.74C1374.32 1349.46 1380.19 1340.54 1379.48 1331.54C1379.48 1331.54 1374.05 1318.94 1374.05 1318.94C1386.22 1323.89 1399.45 1334.3 1412.44 1335.25C1438.68 1422.88 1490.38 1373.79 1540.12 1339.69C1570.15 1318.71 1602.99 1295.54 1634.58 1273.17C1661.39 1251.84 1713.72 1231.6 1688.07 1189.36" fill="white"/>
<path fill-rule="evenodd" clip-rule="evenodd" d="M552.59 528.115C577.931 521.955 582.261 461.188 597.563 469.842C606.407 477.536 591.939 492.053 589.379 500.737L588.255 502.943C583.064 513.059 577.193 523.14 566.961 528.972C560.385 535.898 540.728 529.098 543.618 540.129C553.711 573.372 607.278 596.391 638.848 606.742C687.917 625.179 767.298 618.941 778.827 557.138C751.912 552.209 732.013 503.63 748.601 483.404C749.167 503.051 754.533 523.327 769.95 536.638L770.801 537.419C773.514 539.895 777.027 542.852 780.528 542.301C783.943 537.544 790.571 540.25 792.523 545.271C945.768 571.77 979.907 737.102 1076.41 834.418C1095.69 854.72 1115.84 874.158 1135.74 893.843C1156.05 909.968 1170.43 932.448 1171.43 958.842C1173.25 973.522 1172.35 988.216 1170.41 1002.92L1170.27 1004.25C1169.37 1013.36 1168.84 1023.15 1164.5 1031.24C1163.75 1033.98 1164.06 1037.44 1161.68 1039.38C1162.72 1056.15 1161.74 1073.23 1158.9 1089.96L1166.29 1093.26C1247.65 1129.51 1329.95 1163.67 1414.79 1190.84C1422.04 1189.53 1421.45 1197.96 1417.94 1201.79C1418.86 1206.3 1418.96 1210.99 1417.88 1215.45C1433.41 1217.68 1449.19 1215.82 1464.53 1212.99C1469.38 1202.31 1482.27 1202.88 1492.23 1202.58C1504.61 1201.8 1516.97 1200.59 1529.26 1198.87C1559.55 1192.11 1589.29 1183.2 1619.28 1175.38C1639.35 1169.73 1661 1169.99 1681.13 1175.19C1684.55 1179.03 1687.71 1183.12 1690.38 1187.47C1708.78 1216.02 1690.65 1242.18 1664.96 1257.17C1623.74 1286.4 1582.51 1315.58 1541.1 1344.54L1538.1 1346.69C1488.84 1381.95 1433.42 1426.59 1407.11 1340.76C1398.27 1339.72 1390.52 1333.78 1382.28 1330.28C1384.5 1340.58 1377.88 1350.99 1373.32 1359.82C1371.36 1364.85 1365.99 1366.51 1361.03 1366.46C1356.78 1370.63 1348.81 1368.98 1346.04 1364.04C1323.52 1357.6 1304.91 1342.54 1284.98 1330.85C1256.64 1313.63 1226.91 1298.95 1198.16 1282.46C1245.92 1480.25 1234.24 1686.27 1221.53 1887.6L1221.44 1889.42C1219.87 1918.81 1213.13 1932.72 1188.75 1950.74C1193 1963.69 1196.8 1976.7 1199.7 1990.03C1200.72 1993.12 1205.43 1990.21 1205.46 1994.45C1214.12 1992.43 1231.72 1994.59 1225.58 2006.58C1242.97 2021.17 1254.74 2040.94 1269.98 2057.58C1296.82 2089.75 1331.9 2113.7 1366.3 2137.3C1445.38 2177.61 1449.91 2247.45 1357.39 2271.32L1356.46 2271.53C1343.72 2274.6 1328.37 2281.61 1316.02 2275.71C1297.55 2272.15 1279.21 2264.95 1261.13 2259.46C1188.34 2235.37 1117.15 2207.16 1048.17 2174.73C1045.67 2173.56 1044.26 2170.87 1044.19 2168.17C1044.96 2145.93 1038.92 2024.02 1061.98 2021.4C1067.13 1996.49 1067.94 1970.78 1067 1945.36C1059.52 1943.01 1051.96 1940.74 1044.21 1939.27C1036.69 1936.9 1024.92 1936.37 1019.89 1930.27C1018.08 1929.62 1016.75 1928 1017.02 1925.44C1021.09 1887.24 1024.18 1848.94 1026.44 1810.59C1034.15 1681.97 1031.53 1552.95 1022.74 1424.47C1004.63 1440.14 983.992 1453.86 961.014 1461.16C948.331 1473.87 927.996 1476.59 910.683 1478.13C888.42 1479.51 866.549 1475.06 844.578 1472.3C807.269 1467.6 770.22 1471.76 733.182 1476.36L720.525 1477.94C629.849 1487.89 531.853 1489.95 447.341 1451.18C431.429 1452.6 411.674 1435.4 401.748 1423.9C397.365 1426.61 393.058 1421.32 389.565 1418.54C383.801 1416.79 377.261 1414.27 372.03 1410.6C358.759 1414.94 351.6 1397.71 346.559 1388.34C266.547 1251.29 355.653 1114.87 348.951 969.539C353.009 855.602 301.051 736.898 351.268 627.621C361.427 581.377 420.841 549.418 465.563 537.665C479.974 535.285 534.531 515.555 540.539 532.146C543.382 528.412 548.236 528.132 552.59 528.115ZM1216.29 2011.91C1208.79 2012.72 1201.48 2013.18 1194.07 2014.54C1167.01 2018.98 1141.21 2029.46 1117.96 2044.01C1110.44 2048.71 1103.72 2054.62 1095.08 2057.24C1077.32 2063.69 1059.87 2047.68 1061.18 2030.37C1056.23 2073.87 1057.08 2118.62 1059.64 2162.34C1129.09 2193.76 1200.08 2221.78 1272.37 2246.12C1288.65 2252.94 1307.92 2255.13 1322.87 2264.35C1348.37 2262.75 1374.03 2253.79 1395.44 2239.79C1430.96 2215.15 1407.38 2176.05 1377.94 2158.85C1313.12 2129.59 1257.95 2070.39 1216.29 2011.91ZM1074.28 1947.58C1072.93 1960.48 1082.72 1980.57 1081.34 2006.27C1080.28 2014.29 1077.77 2022.7 1078.64 2030.75C1082.63 2060.64 1114.98 2022.66 1128.35 2018.5C1147.33 2008.06 1167.96 2000.95 1189.15 1997.06C1189.02 1990.17 1184.46 1987.42 1183.86 1980.61C1183 1970.58 1183.05 1960.94 1182.59 1950.81C1155.02 1963.35 1103.52 1954.48 1074.28 1947.58ZM1222.82 2009.96C1222.34 2010.29 1221.83 2010.56 1221.31 2010.8C1225.15 2015.44 1228.46 2020.59 1233.01 2024.58L1231.07 2021.58C1228.49 2017.57 1225.84 2013.58 1222.82 2009.96ZM366.587 940.744C365.198 946.39 362.668 951.7 358.879 956.216C378.45 1114.93 277.757 1247.25 370.335 1394.82C371.505 1395.37 372.573 1396.04 373.601 1396.89C374.145 1396.53 374.689 1396.15 375.223 1395.77C418.615 1318.97 480.384 1252.72 529.6 1179.22C539.047 1160.78 554.597 1142.21 560.551 1120.89C461.647 1081.83 422.139 1024.84 366.587 940.744ZM1668.2 1181.49C1664 1182.99 1659.34 1181.75 1654.86 1181.67C1638.97 1181.33 1623.44 1185.48 1608.25 1189.67C1564.05 1201.76 1519.62 1212.46 1474.33 1219.62C1473.42 1220.57 1472.54 1221.54 1471.75 1222.56C1472.53 1223.89 1472.65 1225.55 1471.51 1227.2C1464.68 1240.25 1470.21 1256.23 1465.24 1270.2C1458.05 1298.49 1438.92 1330.39 1410.38 1340.43C1419.9 1349.5 1426.72 1361.18 1436.53 1369.94C1460.63 1386.46 1487.17 1361.83 1506.85 1348.63C1544.3 1322.16 1581.86 1295.88 1619.52 1269.7C1636.4 1255.71 1673.72 1238.08 1681.79 1219.55C1686.96 1205.35 1677.55 1191.51 1668.2 1181.49ZM1410.04 1217.55C1393.92 1250.44 1384.61 1285.41 1375.3 1320.73C1384.98 1323.39 1393.9 1327.57 1403.42 1330.37C1416.83 1333.39 1435.76 1307.47 1442.48 1297.18C1449.41 1285.68 1454.27 1273.04 1456.52 1259.79C1458.42 1246.82 1456.39 1233.35 1462.03 1221.33C1444.57 1223.12 1426.85 1223.49 1410.04 1217.55ZM451.462 1149.69C466.603 1145.44 432.158 1179.71 430.174 1183.36C407.778 1209.81 387.258 1237.75 366.895 1265.77L360.722 1274.27C360.129 1275.14 356.041 1281.18 358.997 1280.41C359.267 1280.34 359.394 1280.7 359.179 1280.84C340.347 1284.18 442.381 1152.02 451.462 1149.69ZM820.594 1133.51C821.819 1129.83 816.006 1128.25 814.781 1131.92L810.921 1143.54C796.356 1187.47 781.879 1231.46 764.469 1274.36C763.013 1277.96 768.837 1279.53 770.283 1275.97C789.219 1229.28 804.691 1181.31 820.594 1133.51ZM989.91 1118.13C984.601 1143.34 971.184 1166.06 963.051 1190.15C978.326 1186.78 990.093 1172.54 998.997 1160.3L999.264 1159.89C1003.46 1153.42 1008.35 1143.32 1017.89 1147.88C1032.37 1156.3 1021.99 1186.14 1021.72 1200.28C1019.89 1219.67 1013.59 1237.81 1009.29 1256.64C1020.33 1249.09 1023.5 1234.22 1028.88 1222.62L1049.59 1172.93V1172.93C1064.81 1152.07 1057.74 1214.55 1056.96 1220.44C1055.72 1233.39 1050.26 1246.42 1052.4 1259.46C1060.99 1250.22 1066.4 1238.61 1070.94 1226.83C1077.24 1210.44 1083 1193.85 1088.99 1177.35C1091.07 1172.07 1098.93 1173.92 1097.79 1179.74C1097.4 1198.46 1097.09 1217.18 1096.8 1235.9L1096.57 1249.94C1096.53 1252.6 1095.21 1260.38 1099.81 1258.23C1123.95 1232.89 1130.14 1182.21 1127 1148.17C1079.55 1149.31 1031.14 1143.16 989.91 1118.13ZM1412.17 1212.68C1411.97 1213.3 1411.75 1213.92 1411.52 1214.53C1411.66 1214.56 1411.8 1214.59 1411.94 1214.63C1412.03 1213.97 1412.11 1213.33 1412.17 1212.68ZM359.04 1212.68C353.777 1208.79 442.244 1095.17 436.513 1127.97C411.832 1157.18 383.05 1182.78 359.04 1212.68ZM1140.33 961.613C1057.6 942.173 984.739 1014.8 901.653 1003.83C902.615 1029.84 903.951 1056.02 903.426 1082.05C1013.76 1091.15 1001.21 1138.12 1128.22 1133.4C1144.64 1122.4 1151.38 1055.01 1149.99 1034.66C1151.05 1010.61 1130.36 999.808 1109.75 995.588C1102.3 1000.09 1088.93 986.666 1099.99 981.944C1114.55 977.563 1128.17 970.676 1140.33 961.613ZM529.968 535.278C500.534 538.18 471.38 546.205 444.328 558.605C344.327 587.482 329.908 704.575 341.933 793.308C346.915 860.786 366.153 926.781 406.6 981.653C514.28 1145.92 692.63 1119.91 861.564 1098.18C867.654 1093.94 877.973 1096.95 883.841 1091.35C883.228 1091.14 882.675 1090.85 882.202 1090.49C885.022 1088.29 887.204 1084.43 887.854 1080.32L889.071 1080.44V1080.44C890.265 1054.97 889.311 1029.99 889.696 1004.72C834.186 989.489 774.654 981.706 718.398 966.539C712.003 971 704.63 965.866 698.383 963.442C682.191 956.552 665.854 950.008 649.397 943.777L645.28 942.226C634.553 938.204 623.833 934.078 613.205 929.779L609.225 928.159C603.137 925.668 587.763 916.449 581.122 922.205L581.658 923.36C585.596 931.955 599.162 963.757 582.485 957.467C568.944 947.955 561.923 881.626 548.51 881.04C543.898 893.389 540.593 906.206 539.838 919.407C539.566 922.377 535.663 924.882 533.318 922.106C517.41 901.15 541.439 878.324 542.081 856.205C543.596 830.485 532.22 806.42 526.553 781.802L526.204 780.104C522.882 764.133 517.71 744.769 519.082 730.445L522.383 742.879C525.694 755.321 529.085 767.764 532.977 780.031C542.634 810.669 560.07 842.234 550.381 875.017C569.819 875.665 573.106 906.356 580.407 920.373C592.221 905.038 675.351 941.807 694.32 947.706L697.979 943.553C757.389 876.165 800.277 830.559 892.358 883.865C876.451 832.532 874.914 778.01 872.201 724.706C873.131 714.565 867.272 687.816 875.535 682.28C876.968 682.489 878.363 682.923 879.68 683.5L879.678 688.754C879.718 698.932 880.192 715.809 884.459 719.643L886.416 739.797C891.544 792.201 897.359 844.565 913.002 895.065C950.553 916.066 984.817 942.362 1017.05 970.732L1020.72 969.392C1060.55 954.804 1108.47 936.106 1149.2 954.312C1148.51 944.034 1144.55 934.197 1139.02 925.504C1129.79 923.214 1123.75 913.482 1117.15 907.003C1096.22 884.509 1074.73 862.531 1054.28 839.584C967.025 745.677 929.901 591.476 792.872 555.053C783.814 630.935 686.771 643.043 628.292 617.074L626.073 616.223C589.72 602.187 548.639 581.004 535.872 542.41L535.342 541.293C534.029 538.571 532.463 535.797 529.968 535.278ZM551.536 967.101C551.642 966.984 551.848 967.141 551.758 967.272C534.719 988.66 520.856 1017.83 537.788 1043.38C540.918 1049.13 533.603 1054.66 528.921 1050.27C505.419 1023.58 531.494 987.386 551.536 967.101ZM1144.3 971.933C1134.93 978.625 1124.88 984.183 1114.24 988.568C1114.27 989.794 1113.68 991.105 1113.14 992.068C1127.14 993.181 1141.73 996.801 1151.57 1007.02C1152.04 1003.28 1152.51 999.535 1152.87 995.786C1153.78 986.142 1152.12 977.511 1144.3 971.933ZM500.056 877.384L500.164 876.869C500.24 876.284 501.128 876.244 501.101 876.869C500.776 884.515 495.215 889.953 490.505 895.398C483.516 903.475 476.526 911.55 469.533 919.624C457.843 933.695 440.621 947.84 444.493 968.225C444.566 975.465 435.496 977.017 431.816 971.693C417.181 943.771 463.25 920.014 478.779 902C486.071 894.204 497.562 888.467 500.056 877.384V877.384ZM719.407 961.212C719.625 961.559 719.781 961.936 719.864 962.322C722.318 962.582 724.761 962.862 727.204 963.161L719.407 961.212V961.212ZM352.966 895.908C353.404 898.826 353.813 901.75 354.205 904.678L354.591 907.605L354.651 907.349C354.851 906.589 355.228 905.929 355.722 905.402L355.89 905.231C354.874 902.139 353.9 899.032 352.966 895.908ZM1025.55 865.709C1031.42 865.082 1004.82 884.215 1003.36 886.583C1001.21 888.448 998.704 885.134 1000.99 883.518C1009.26 877.685 1017.4 871.698 1025.55 865.709ZM973.804 809.425C977.889 807.751 980.663 814.556 976.788 816.452C962.676 823.359 947.754 828.244 934.751 837.331C934.18 837.729 933.465 836.801 934.006 836.374L935.568 835.138C947.545 825.622 959.509 815.28 973.804 809.425ZM357.839 723.391C361.783 741.972 383.123 748.074 399.684 753.024L404.859 754.996C419.484 760.595 434.635 766.894 445.156 778.726C449.28 792.072 419.854 768.824 415.746 767.646C395.652 755.181 359.344 753.063 357.839 723.391ZM793.475 549.898C793.586 550.843 793.641 551.808 793.669 552.773C794.907 552.773 796.135 552.782 797.373 552.822C795.932 551.977 794.611 551.012 793.475 549.898Z" fill="black"/>
<path fill-rule="evenodd" clip-rule="evenodd" d="M835.529 304.003C833.377 285.088 836.163 245.552 836.349 243.15C837.529 227.965 830.415 168.002 816.964 173.527C794.402 155.666 764.351 151.722 736.252 149.838C677.884 145.924 615.791 154.909 570.721 194.189C548.433 214.588 526.733 244.257 528.477 275.149C508.227 304.431 479.677 344.598 504.909 378.831C513.486 389.768 527.117 393.841 537.892 402.124C559.563 419.604 573.16 444.69 595.037 462.066C652.997 514.149 751.414 525.029 808.36 465.789C852.395 422.885 845.275 358.699 837.529 304.003C832.322 267.23 839.729 340.904 835.529 304.003Z" fill="white"/>
<path fill-rule="evenodd" clip-rule="evenodd" d="M658.28 69.6256C673.89 66.4756 689.919 64.5156 705.86 65.1056L707.089 65.1533C719.083 65.6327 734.273 66.6931 744.736 73.6676C745.338 73.0636 746.306 72.7536 747.184 73.1726C759.618 79.1076 773.294 83.3986 786.386 87.6626C799.418 91.9056 812.938 94.7066 826.597 95.8356C831.736 96.2606 836.134 101.81 832.88 106.787C832.106 107.973 831.352 109.171 830.601 110.372C831.857 110.241 833.113 110.106 834.369 109.979C838.502 109.563 842.631 113.974 842.386 117.998C842.233 120.529 841.96 123.03 841.556 125.501C843.13 125.468 844.695 125.704 846.207 126.343C853.863 129.576 853.33 138.695 852.757 145.633C851.963 155.261 848.362 165.459 841.676 172.665C846.668 177.85 850.202 184.042 852.31 191.396C853.839 196.766 854.69 202.486 854.27 208.076L854.136 209.749C853.617 215.815 852.584 222.532 848.22 226.896C845.98 229.146 843.22 229.966 840.589 229.706C842.18 243.686 843.2 257.746 844.16 271.756L844.61 278.452C846.752 310.832 848.361 343.422 847.94 375.856C847.549 406.166 841.56 435.586 822.97 460.196C806.039 482.606 781.73 499.126 754.23 505.406C739.41 508.796 724.28 509.036 709.28 506.876C702.009 505.826 694.69 504.216 687.789 501.676C680.15 498.856 674.66 494.706 669.52 488.486C667.089 485.536 668.259 479.256 673.1 479.846C680.421 480.733 687.105 481.803 694.124 483.969L695.129 484.286C702.12 486.526 709.36 488.196 716.669 488.906C731.64 490.356 746.839 488.896 761.18 484.356C784.53 476.956 804.64 460.466 817.53 439.746C832.83 415.186 834.56 387.306 834.339 359.066C834.102 328.077 833.094 297.071 831.449 266.114L831.169 260.956C830.299 245.026 829.459 229.086 828.72 213.146C828.49 208.146 828.14 203.106 827.509 198.116C821.74 194.736 816.57 190.076 813.2 184.326C806.43 187.126 799.31 189.146 792.759 190.756C777.585 194.488 761.831 195.394 746.386 193.057C742.22 194.778 737.971 196.291 733.657 197.593C732.491 198.11 731.325 198.618 730.16 199.116C719.759 203.566 709.209 207.336 698.23 210.096L695.533 210.768C689.755 212.192 683.479 213.595 677.33 214.036C676.32 214.426 675.23 214.756 674.039 215.046C668.44 216.406 662.629 216.836 656.89 216.356C651.299 215.886 647.259 210.236 650.339 204.946C652.589 201.086 654.86 197.236 657.15 193.396C649.18 196.716 640.95 199.476 632.65 201.816C624.27 204.176 615.77 206.166 607.259 207.996C602.709 208.966 598.14 209.826 593.6 210.796C590.35 211.486 585.36 211.846 582.709 213.986C579.78 216.336 578.95 221.816 577.839 225.196C576.379 229.586 575.009 233.996 573.759 238.456C571.27 247.356 569.23 256.386 567.65 265.506C566.07 274.636 565.009 283.856 564.419 293.106C563.83 302.346 564.089 311.646 563.14 320.846C562.629 325.726 557.39 328.236 553.52 324.826C553.066 324.426 552.608 324.021 552.155 323.612L551.48 322.996C548.169 319.996 544.959 316.816 542.31 313.236C541.83 312.576 541.37 311.886 540.94 311.186C540.87 311.186 540.81 311.166 540.74 311.116L540.005 310.563C531.918 304.543 518.406 296.695 510.52 306.696C508.007 309.881 506.72 313.938 505.653 317.852L503.779 324.856C502.567 329.429 501.426 334.027 500.759 338.706C499.249 349.186 500.009 361.266 507.22 369.666C510.1 373.026 514.07 375.426 518.499 376.056C520.97 376.396 523.41 375.976 525.86 375.666C528.35 375.356 530.749 375.856 533.24 375.616C537.2 375.226 538.93 379.966 537.45 382.946C536.65 384.546 535.709 385.926 534.64 387.096C535.499 387.836 536.32 388.636 537.11 389.476C539.45 390.226 541.549 391.836 543.12 393.966C544.39 395.686 545.049 397.556 545.16 399.526C545.299 400.016 545.419 400.516 545.53 401.026L547.675 404.507C548.147 405.271 548.617 406.026 549.089 406.766C554.549 415.366 560.61 422.646 568.14 429.506C575.39 436.106 583.259 442.016 590.07 449.096L590.872 449.936C597.222 456.627 603.915 464.727 601.43 474.456C600.79 476.956 597.299 478.756 595.02 477.066C587.69 471.626 583.999 463.006 577.78 456.406C571.379 449.606 564.289 443.496 557.87 436.716C551.799 430.316 547.009 423.066 543.4 415.086C541.959 416.676 539.86 417.806 536.95 418.246C531.95 418.996 527.289 416.066 525.11 411.736C523.709 412.356 522.28 412.916 520.839 413.356C513.259 415.676 508.49 407.246 511.35 401.016C512.879 397.676 514.789 394.776 517.16 392.336C509.749 391.316 502.209 387.486 497.339 382.706C485.12 370.696 483.44 352.646 486.19 336.596C487.65 328.086 490.169 319.476 493.44 311.486C494.009 310.096 494.62 308.696 495.289 307.316C494.919 307.306 494.539 307.146 494.299 306.836C492.089 303.816 489.4 301.346 487.759 297.966C486.249 294.866 484.57 291.726 483.379 288.496C480.93 281.886 479.73 274.426 478.93 267.436C477.28 253.126 477.919 238.906 480.11 224.686C483.839 200.466 492.847 177.288 506.118 156.95C505.395 156.57 504.703 156.112 504.058 155.57L503.739 155.292L503.221 154.824C499.434 151.397 499.761 144.974 503.221 141.503L504.314 140.407C505.697 139.032 506.891 137.943 509.126 136.447C509.456 136.226 509.793 136.018 510.134 135.824C508.964 133.662 508.558 131.134 509.373 128.345C512.213 118.629 526.193 118.973 535.054 123.21C544.857 114.461 555.727 106.866 567.509 100.716C595.57 86.0756 627.299 75.8656 658.28 69.6256ZM513.23 325.526C518.47 323.816 525.43 327.406 530.14 329.566C536.11 332.306 541.19 336.356 546.11 340.636C548.56 342.776 548.999 346.276 548.39 349.266C548.329 349.566 548.27 349.876 548.199 350.186C547.549 353.376 543.989 355.886 540.839 355.796C534.249 355.616 531.11 349.926 527.379 345.106C526.94 345.886 526.39 346.606 525.709 347.146L525.249 347.506C523.701 348.684 521.995 349.626 519.949 349.536C518.499 349.466 517.11 349.096 515.829 348.426C512.629 346.736 511.22 342.596 512.089 339.226C512.629 337.106 513.869 335.446 515.489 334.296L514.885 333.883C513.593 332.983 512.415 332.035 511.496 330.637L511.289 330.306H511.369C510.369 328.586 511.02 326.246 513.23 325.526Z" fill="black"/>
<path fill-rule="evenodd" clip-rule="evenodd" d="M843.311 339.458C831.17 352.003 810.902 355.603 794.749 348.875C753.273 331.546 773.574 277.496 805.561 262.981C809.557 261.985 814.894 259.622 819.761 259.086C820.201 258.87 821.159 259.495 822.32 258.904C857.591 262.842 865.623 317.594 843.311 339.458M709.533 342.669C695.916 360.73 670.6 366.302 649.916 357.906C609.054 341.814 623.547 293.885 651.504 275.095C710.561 252.904 734.948 309.368 709.533 342.669M620.953 302.651C620.915 302.633 620.877 302.624 620.838 302.606C621.054 302.511 621.27 302.416 621.485 302.319C621.415 302.502 621.339 302.683 621.271 302.866C621.165 302.793 621.072 302.708 620.953 302.651M871.423 283.128C868.089 283.135 863.273 283.683 860.513 285.996C853.707 263.043 828.585 241.8 806.737 257.29C789.532 262.823 776.765 275.094 769.509 291.408C756.426 283.626 735.854 286.949 724.509 297.24C717.079 272.689 698.793 264.092 677.028 262.823C653.272 258.932 629.594 282.003 622.206 300.511C616.063 299.812 606.884 297.857 601.105 301.648C563.598 291.812 498.023 286.389 490.398 291.854C484.964 293.939 481.982 306.765 489.572 307.457C496.186 306.518 488.8 298.059 495.467 297.136C530.99 294.934 565.475 302.088 600.622 305.09C603.76 309.311 613.899 310.723 619.308 309.027C610.789 340.423 629.179 361.783 656.734 368.181C699.401 377.982 736.522 339.814 725.365 300.114C738.29 293.684 753.157 293.96 767.237 297.347C743.709 383.937 883.166 380.052 861.385 288.963C875.88 296.173 879.028 284.583 871.423 283.128" fill="black"/>
<path fill-rule="evenodd" clip-rule="evenodd" d="M727.716 441.728C720.575 438.817 714.204 433.962 709.545 427.759C707.926 425.603 707.506 423.326 707.846 421.243C708.228 418.902 709.614 416.779 711.505 415.356C713.402 413.928 715.775 413.223 718.068 413.582C720.061 413.894 722.046 414.985 723.616 417.246L723.944 417.699C726.713 421.442 730.322 424.514 734.434 426.494C738.397 428.402 742.83 429.293 747.417 428.775C756.153 427.789 762.174 423.068 768.574 416.657C769.367 415.848 770.161 415.013 770.959 414.165C771.463 413.396 772.162 412.902 772.938 412.643C773.799 412.355 774.774 412.371 775.667 412.682C776.528 412.983 777.298 413.552 777.815 414.309C778.305 415.029 778.583 415.918 778.493 416.941C777.907 423.585 774.431 429.514 769.493 434.169C764.009 439.34 756.74 442.917 749.896 444.172C742.356 445.554 734.673 444.564 727.716 441.728V441.728ZM753.453 339.237C761.475 344.109 773.697 355.469 765.068 367.548C754.91 378.197 740.285 365.987 733.078 360.464C726.396 356.184 718.887 367.192 725.088 372.19C777.165 410.714 798.299 340.511 757.51 333.508C753.019 332.737 751.351 337.729 753.453 339.237ZM660.13 294.422C661.017 283.43 677.772 280.933 679.438 291.811C680.931 301.555 679.174 310.506 674.781 319.279C670.584 327.66 660.035 323.75 659.237 316.118C658.168 305.888 659.579 301.26 660.13 294.422ZM787.672 289.556C790.008 286.499 793.381 284.412 797.422 285.591C810.047 289.277 806.326 307.187 801.892 315.905C799.482 320.639 791.695 321.839 788.176 317.671C782.439 310.873 779.692 297.299 786.985 290.603C787.182 290.257 787.402 289.908 787.672 289.556ZM674.603 246.322L676.598 245.973C682.767 244.907 690.438 243.883 694.803 248.839C697.117 251.467 697.914 256.352 694.803 258.867C689.33 263.294 683.279 261.578 676.721 261.953C671.316 262.263 666.121 263.157 660.915 264.644C649.493 267.905 640.187 273.86 630.432 280.399C629.152 281.256 627.845 279.621 628.456 278.424C634.087 267.403 645 258.35 655.931 252.832C661.765 249.887 668.149 247.443 674.603 246.322ZM776.163 241.385L777.689 241.698C794.301 245.167 815.882 252.097 823.749 268.4C824.048 270.706 823.732 271.2 823.474 271.523L823.388 271.63C823.176 271.906 823.007 272.286 822.007 272.599C821.729 272.533 821.449 272.463 821.166 272.389C817.56 271.445 814.707 270.144 811.945 268.795L808.951 267.321C805.477 265.618 801.972 263.978 798.257 262.767C790.33 260.184 782.177 258.364 773.897 257.392C772.103 257.182 770.374 256.577 769.011 255.539C767.717 254.555 766.728 253.192 766.278 251.38C765.694 249.035 765.861 247.26 767.121 245.145C768.067 243.556 769.422 242.455 770.977 241.823C772.563 241.178 774.369 241.026 776.163 241.385Z" fill="black"/>
</svg>
