<svg viewBox="0 0 64 64" xmlns="http://www.w3.org/2000/svg"><circle cx="35" cy="32" fill="#e5efef" r="23"/><path d="m60 32h-50" fill="none" stroke="#4c241d" stroke-linecap="round" stroke-linejoin="round" stroke-width="2"/><path d="m60 38h-50" fill="none" stroke="#4c241d" stroke-linecap="round" stroke-linejoin="round" stroke-width="2"/><path d="m60 44h-50" fill="none" stroke="#4c241d" stroke-linecap="round" stroke-linejoin="round" stroke-width="2"/><path d="m33.177 50.046a5.677 5.677 0 0 1 4.476-5.555 7.678 7.678 0 0 0 3.666-2.026c3.6-3.6 2.868-10.159-1.629-14.655s-11.057-5.226-14.655-1.629a7.678 7.678 0 0 0 -2.026 3.666 5.677 5.677 0 0 1 -5.555 4.476 10.164 10.164 0 0 0 -7.48 2.849c-4.5 4.5-3.586 12.7 2.035 18.319s13.822 6.532 18.318 2.035a10.161 10.161 0 0 0 2.85-7.48z" fill="#bf7e68" stroke="#4c241d" stroke-linecap="round" stroke-linejoin="round" stroke-width="2"/><path d="m44 53v2" fill="none" stroke="#4c241d" stroke-linecap="round" stroke-linejoin="round" stroke-width="2"/><path d="m44 59v2" fill="none" stroke="#4c241d" stroke-linecap="round" stroke-linejoin="round" stroke-width="2"/><path d="m40 57h2" fill="none" stroke="#4c241d" stroke-linecap="round" stroke-linejoin="round" stroke-width="2"/><path d="m46 57h2" fill="none" stroke="#4c241d" stroke-linecap="round" stroke-linejoin="round" stroke-width="2"/><path d="m59.082 50.667a1.069 1.069 0 1 1 -1.069-1.067 1.07 1.07 0 0 1 1.069 1.067z" fill="#4c241d"/><g stroke="#4c241d" stroke-linecap="round" stroke-linejoin="round" stroke-width="2"><path d="m12.967 24a9.494 9.494 0 0 0 8.4-5.067h-16.799a9.494 9.494 0 0 0 8.399 5.067z" fill="#f53e28"/><path d="m21.366 10.067h-16.798a9.475 9.475 0 0 0 0 8.866h16.8a9.475 9.475 0 0 0 0-8.866z" fill="#ffce56"/><path d="m12.967 5a9.494 9.494 0 0 0 -8.4 5.067h16.8a9.494 9.494 0 0 0 -8.4-5.067z" fill="#f53e28"/><path d="m37.795 14.162h4.606v26.482h-4.606z" fill="#e7d1c4" transform="matrix(.70710678 .70710678 -.70710678 .70710678 31.121 -20.327)"/><path d="m58.292 13.783 1.784 1.783" fill="none"/><path d="m55.85 16.225 1.783 1.783" fill="none"/><path d="m52.593 17.854 1.784 1.783" fill="none"/><path d="m53.717 9.208-1.783-1.784" fill="none"/><path d="m51.275 11.65-1.783-1.783" fill="none"/><path d="m49.647 14.907-1.784-1.784" fill="none"/><path d="m51.089 19.668-3.257-3.257 6.524-7.828a2.307 2.307 0 0 1 3.4-.155l1.316 1.312a2.307 2.307 0 0 1 -.155 3.4z" fill="#bf7e68"/><path d="m14.008 47.72 5.772 5.772" fill="none"/><circle cx="28.292" cy="39.208" fill="#914d41" r="4.606"/></g></svg>