<svg width="842" height="1200" viewBox="0 0 842 1200" fill="none" xmlns="http://www.w3.org/2000/svg">
<path fill-rule="evenodd" clip-rule="evenodd" d="M659.933 683.977C651.249 680.881 642.879 677.305 635.253 672.045C613.27 655.682 598.936 631.057 585.392 607.726C566.314 573.793 552.723 537.635 543.328 499.915C539.291 483.709 537.92 464.919 528.748 450.551C507.956 420.466 446.987 424.364 414.612 429.645C392.932 433.481 388.451 457.743 383.527 475.696C379.427 490.613 376.743 505.699 374.49 520.987C369.13 524.511 363.079 527.373 357.311 529.866C294.452 549.141 283.404 584.875 259.395 640.073C218.844 720.302 108.809 751.715 92.1883 846.664C81.4793 909.349 111.932 968.323 143.329 1020.43C172.569 1077.36 213.39 1104.68 278.399 1091.23C339.374 1077.55 397.974 1054.67 457.876 1036.99C486.889 1029.85 515.856 1011.3 546.375 1017.77C609.26 1031.89 673.871 1038.53 738.317 1036.7C828.801 1040.36 828.787 953.513 819.5 886.26C812.995 781.599 760.205 714.395 659.933 683.977V683.977Z" fill="white"/>
<path fill-rule="evenodd" clip-rule="evenodd" d="M665.983 835.422C673.544 840.422 679.903 848.003 685.008 855.981C663.696 853.764 642.421 851.208 621.193 848.298C623.972 846.522 626.777 844.785 629.646 843.145C640.113 837.247 654.295 827.694 665.983 835.422ZM311.898 898.42C307.993 896.891 306.482 890.937 304.96 887.524C300.188 876.821 295.833 865.936 291.302 855.129C308.506 850.225 325.236 844.784 343.058 842.17C362.221 839.362 381.667 838.682 401.007 839.313C440.181 840.591 478.991 846.993 517.505 853.858C555.974 860.715 594.441 867.303 633.179 872.473C671.132 877.538 709.205 881.245 747.349 884.499C754.76 885.132 767.117 887.797 773.077 881.965C777.796 877.346 777.949 868.827 772.044 865.072C768.366 862.731 763.037 862.697 758.835 862.157C753.543 861.476 748.23 861.023 742.906 860.67C740.737 860.527 738.568 860.395 736.398 860.263C753.815 853.696 772.006 850.115 790.888 851.113C791.956 857.6 796.767 864.274 799.4 869.624C803.998 878.964 807.582 888.417 809.935 898.573C814.853 919.801 815.067 941.833 813.678 963.484C812.402 981.536 809.661 1001.5 795.501 1014.29C784.78 1023.97 769.654 1027.55 755.621 1028.68C739.311 1029.99 722.749 1028.59 706.576 1026.4C683.892 1023.34 661.102 1019.28 638.864 1013.85C595.793 1003.32 554.509 986.566 516.42 963.854C497.845 952.779 480.121 940.319 461.291 929.665C442.104 918.807 421.688 910.384 400.25 905.154C376.259 899.301 351.179 896.803 326.521 898.247C322.242 898.497 316.06 900.049 311.898 898.42ZM284.096 887.552C286.617 895.733 288.546 905.074 293.927 911.948C299.257 918.76 307.298 921.164 315.628 921.77C325.672 922.499 335.834 922.032 345.9 922.406C366.545 923.173 386.907 926.526 406.643 932.677C425.035 938.41 442.108 947.352 458.554 957.272C473.762 966.446 488.524 976.295 503.737 985.441C499.688 987.297 495.685 989.305 491.66 991.053C483.218 994.719 474.724 998.256 466.192 1001.7C449.367 1008.5 432.471 1015.14 415.402 1021.3C380.984 1033.73 346 1044.59 310.595 1053.84C293.709 1058.25 276.583 1063.41 259.04 1064.14C243.484 1064.79 229.075 1060.39 216.529 1051.14C190.507 1031.96 169.804 1004.27 153.068 976.958C143.125 960.731 134.448 943.681 127.271 926.052C123.641 917.137 120.349 908.085 117.386 898.927C115.996 894.627 114.678 890.303 113.43 885.959C112.881 884.049 112.355 882.133 111.834 880.215C138.443 872.095 165.368 864.765 192.925 860.696C207.638 858.523 222.547 857.423 237.421 857.583C244.804 857.662 252.183 858.061 259.527 858.823C263.48 859.233 267.417 859.761 271.337 860.415C272.957 860.684 274.622 861.082 276.292 861.375C278.843 870.116 281.415 878.85 284.096 887.552ZM834.138 852.798C835.572 849.897 836.177 847.043 836.691 843.885C837.083 841.476 838.123 838.085 837.212 834.957C836.192 831.454 833.413 828.321 831.418 825.333C829.215 822.031 827.014 818.727 824.816 815.421C820.419 808.81 816.032 802.193 811.652 795.571C793.765 768.53 776 741.411 758.207 714.309C742.417 690.258 726.893 665.991 710.622 642.263C696.709 621.973 681.544 602.018 662.5 586.238C638.421 566.286 609.749 556.887 579.8 549.553C576.529 546.158 572.16 544.304 567.49 544.68C560.892 537.197 555.648 531.97 553.271 522.454C552.132 517.896 552.489 505.089 548.05 502.392C542.777 499.188 540.023 503.428 538.569 508.208C533.704 524.198 539.288 545.696 552.138 561.713C546.724 580.424 539.546 607.016 526.741 622.006C513.029 638.057 494.066 643.053 473.606 643.382C434.588 644.01 395.611 629.509 365.85 604.377C356.804 596.739 348.403 588.208 340.802 579.135C335.101 572.328 328.357 561.823 323.897 553.883C323.897 550.789 320.243 547.553 357.437 545.053C394.63 542.553 397.451 491.626 398.278 484.695C398.95 479.067 401.808 470.331 397.842 465.742C396.159 463.793 392.705 463.479 390.571 464.803C386.547 467.302 385.225 473.692 383.96 478.031C382.188 484.11 376.395 521.837 365.418 526.205C360.279 528.25 354.385 528.288 348.949 528.666C342.236 529.135 335.509 529.478 328.823 530.259C326.357 530.547 323.667 531.345 321.234 531.368C319.651 531.383 318.018 530.614 316.488 530.074C311.324 528.249 306.164 529.618 300.844 530.333C253.808 536.654 205.377 551.081 165.257 577.04C129.895 599.92 104.982 632.825 88.5427 671.297C71.7697 710.559 62.1557 753.016 54.0987 794.812C51.3997 808.816 49.0427 822.885 47.0177 837.002C45.0607 850.643 42.6127 864.589 42.0267 878.368C41.7947 883.82 43.0977 888.885 45.1027 893.865C47.3607 899.47 52.6977 901.68 57.8167 904.297C69.0537 910.045 80.9077 914.503 93.1207 917.66C100.582 931.233 106.861 945.336 111.907 959.973C110.035 963.682 109.996 969.221 109.636 972.826C108.743 981.803 108.361 990.827 108.281 999.845C108.12 1017.92 109.207 1035.98 110.059 1054.02C110.923 1072.33 113.795 1144.55 114.263 1153.37C114.627 1160.22 114.137 1169.8 117.746 1175.88C123.292 1185.23 136.98 1184.92 143.32 1177.34C300.844 1211.2 596.944 1201 716.199 1183.96C731.715 1181.75 726.843 1184.2 730.789 1180.28C733.75 1177.34 736.27 1172.3 737.089 1168.25C738.183 1162.84 736.417 1157.95 733.321 1153.57C730.066 1148.97 729.473 1141.52 728.264 1136.05C725.405 1123.12 723.984 1066.33 722.648 1060.04C722.232 1058.07 721.829 1056 721.343 1053.93C743.218 1056 766.011 1056 786.822 1048.68C798.623 1044.53 809.629 1038.02 818.101 1028.71C828.359 1017.45 834.066 1003.26 837.001 988.457C840.788 969.366 841.592 949.591 840.848 930.184C839.814 907.248 836.01 883.989 826.568 862.93C829.675 860.045 832.279 856.564 834.138 852.798Z" fill="black"/>
<path fill-rule="evenodd" clip-rule="evenodd" d="M633.529 304.003C631.376 285.088 634.162 245.552 634.349 243.15C635.529 227.965 628.414 168.002 614.964 173.527C592.402 155.666 562.351 151.722 534.251 149.838C475.884 145.924 413.791 154.909 368.721 194.189C346.432 214.588 324.733 244.257 326.477 275.149C306.226 304.431 277.677 344.598 302.909 378.831C311.485 389.768 325.117 393.841 335.891 402.124C357.563 419.604 371.159 444.69 393.036 462.066C450.997 514.149 549.414 525.029 606.36 465.789C650.395 422.885 643.275 358.699 635.529 304.003C630.322 267.23 637.729 340.904 633.529 304.003Z" fill="white"/>
<path fill-rule="evenodd" clip-rule="evenodd" d="M456.28 69.6251C471.89 66.4751 487.919 64.5151 503.86 65.1051L505.089 65.1528C517.083 65.6322 532.273 66.6926 542.736 73.6671C543.338 73.0631 544.306 72.7531 545.184 73.1721C557.618 79.1071 571.294 83.3981 584.386 87.6621C597.418 91.9051 610.938 94.7061 624.597 95.8351C629.736 96.2601 634.134 101.809 630.88 106.786C630.106 107.972 629.352 109.17 628.601 110.371C629.857 110.24 631.113 110.105 632.369 109.978C636.502 109.562 640.631 113.973 640.386 117.997C640.233 120.528 639.96 123.029 639.556 125.5C641.13 125.467 642.695 125.703 644.207 126.342C651.863 129.575 651.33 138.694 650.757 145.632C649.963 155.26 646.362 165.458 639.676 172.664C644.668 177.849 648.202 184.041 650.31 191.395C651.839 196.765 652.69 202.485 652.27 208.075L652.136 209.749C651.617 215.815 650.584 222.531 646.22 226.895C643.98 229.145 641.22 229.965 638.589 229.705C640.18 243.685 641.2 257.745 642.16 271.755L642.61 278.451C644.752 310.831 646.361 343.422 645.94 375.855C645.549 406.165 639.56 435.585 620.97 460.195C604.039 482.605 579.73 499.125 552.23 505.405C537.41 508.795 522.28 509.035 507.28 506.875C500.009 505.825 492.69 504.215 485.789 501.675C478.15 498.855 472.66 494.705 467.52 488.485C465.089 485.535 466.259 479.255 471.1 479.845C478.421 480.733 485.105 481.803 492.124 483.968L493.129 484.285C500.12 486.525 507.36 488.195 514.669 488.905C529.64 490.355 544.839 488.895 559.18 484.355C582.53 476.955 602.64 460.465 615.53 439.745C630.83 415.185 632.56 387.305 632.339 359.065C632.102 328.077 631.094 297.07 629.449 266.114L629.169 260.955C628.299 245.025 627.459 229.085 626.72 213.145C626.49 208.145 626.14 203.105 625.509 198.115C619.74 194.735 614.57 190.075 611.2 184.325C604.43 187.125 597.31 189.145 590.759 190.755C575.585 194.487 559.831 195.393 544.386 193.056C540.22 194.777 535.971 196.29 531.657 197.592C530.491 198.109 529.325 198.617 528.16 199.115C517.759 203.565 507.209 207.335 496.23 210.095L493.533 210.768C487.755 212.192 481.479 213.595 475.33 214.035C474.32 214.425 473.23 214.755 472.039 215.045C466.44 216.405 460.629 216.835 454.89 216.355C449.299 215.885 445.259 210.235 448.339 204.945C450.589 201.085 452.86 197.235 455.15 193.395C447.18 196.715 438.95 199.475 430.65 201.815C422.27 204.175 413.77 206.165 405.259 207.995C400.709 208.965 396.14 209.825 391.6 210.795C388.35 211.485 383.36 211.845 380.709 213.985C377.78 216.335 376.95 221.815 375.839 225.195C374.379 229.585 373.009 233.995 371.759 238.455C369.27 247.355 367.23 256.385 365.65 265.505C364.07 274.635 363.009 283.855 362.419 293.105C361.83 302.345 362.089 311.645 361.14 320.845C360.629 325.725 355.39 328.235 351.52 324.825C351.066 324.425 350.608 324.021 350.155 323.612L349.48 322.995C346.169 319.995 342.959 316.815 340.31 313.235C339.83 312.575 339.37 311.885 338.94 311.185C338.87 311.185 338.81 311.165 338.74 311.115L338.005 310.562C329.918 304.543 316.406 296.694 308.52 306.695C306.007 309.881 304.72 313.938 303.653 317.851L301.779 324.856C300.567 329.428 299.426 334.026 298.759 338.705C297.249 349.185 298.009 361.265 305.22 369.665C308.1 373.025 312.07 375.425 316.499 376.055C318.97 376.395 321.41 375.975 323.86 375.665C326.35 375.355 328.749 375.855 331.24 375.615C335.2 375.225 336.93 379.965 335.45 382.945C334.65 384.545 333.709 385.925 332.64 387.095C333.499 387.835 334.32 388.635 335.11 389.475C337.45 390.225 339.549 391.835 341.12 393.965C342.39 395.685 343.049 397.555 343.16 399.525C343.299 400.015 343.419 400.515 343.53 401.025L345.675 404.507C346.147 405.271 346.617 406.025 347.089 406.765C352.549 415.365 358.61 422.645 366.14 429.505C373.39 436.105 381.259 442.015 388.07 449.095L388.872 449.936C395.222 456.627 401.915 464.726 399.43 474.455C398.79 476.955 395.299 478.755 393.02 477.065C385.69 471.625 381.999 463.005 375.78 456.405C369.379 449.605 362.289 443.495 355.87 436.715C349.799 430.315 345.009 423.065 341.4 415.085C339.959 416.675 337.86 417.805 334.95 418.245C329.95 418.995 325.289 416.065 323.11 411.735C321.709 412.355 320.28 412.915 318.839 413.355C311.259 415.675 306.49 407.245 309.35 401.015C310.879 397.675 312.789 394.775 315.16 392.335C307.749 391.315 300.209 387.485 295.339 382.705C283.12 370.695 281.44 352.645 284.19 336.595C285.65 328.085 288.169 319.475 291.44 311.485C292.009 310.095 292.62 308.695 293.289 307.315C292.919 307.305 292.539 307.145 292.299 306.835C290.089 303.815 287.4 301.345 285.759 297.965C284.249 294.865 282.57 291.725 281.379 288.495C278.93 281.885 277.73 274.425 276.93 267.435C275.28 253.125 275.919 238.905 278.11 224.685C281.839 200.465 290.847 177.287 304.118 156.949C303.395 156.569 302.703 156.111 302.058 155.569L301.739 155.291L301.221 154.823C297.434 151.396 297.761 144.973 301.221 141.502L302.314 140.407C303.697 139.032 304.891 137.943 307.126 136.446C307.456 136.225 307.793 136.017 308.134 135.823C306.964 133.661 306.558 131.133 307.373 128.344C310.213 118.628 324.193 118.972 333.054 123.209C342.857 114.46 353.727 106.865 365.509 100.715C393.57 86.0751 425.299 75.8651 456.28 69.6251ZM311.23 325.525C316.47 323.815 323.43 327.405 328.14 329.565C334.11 332.305 339.19 336.355 344.11 340.635C346.56 342.775 346.999 346.275 346.39 349.265C346.329 349.565 346.27 349.875 346.199 350.185C345.549 353.375 341.989 355.885 338.839 355.795C332.249 355.615 329.11 349.925 325.379 345.105C324.94 345.885 324.39 346.605 323.709 347.145L323.249 347.505C321.701 348.684 319.995 349.626 317.949 349.535C316.499 349.465 315.11 349.095 313.829 348.425C310.629 346.735 309.22 342.595 310.089 339.225C310.629 337.105 311.869 335.445 313.489 334.295L312.885 333.882C311.593 332.983 310.415 332.035 309.496 330.636L309.289 330.305H309.369C308.369 328.585 309.02 326.245 311.23 325.525Z" fill="black"/>
<path fill-rule="evenodd" clip-rule="evenodd" d="M641.311 339.458C629.17 352.003 608.902 355.603 592.749 348.875C551.273 331.546 571.574 277.496 603.561 262.981C607.557 261.985 612.894 259.622 617.761 259.086C618.201 258.87 619.159 259.495 620.32 258.904C655.591 262.842 663.623 317.594 641.311 339.458M507.533 342.669C493.916 360.73 468.6 366.302 447.916 357.906C407.054 341.814 421.547 293.885 449.504 275.095C508.561 252.904 532.948 309.368 507.533 342.669M418.953 302.651C418.915 302.633 418.877 302.624 418.838 302.606C419.054 302.511 419.27 302.416 419.485 302.319C419.415 302.502 419.339 302.683 419.271 302.866C419.165 302.793 419.072 302.708 418.953 302.651M669.423 283.128C666.089 283.135 661.273 283.683 658.513 285.996C651.707 263.043 626.585 241.8 604.737 257.29C587.532 262.823 574.765 275.094 567.509 291.408C554.426 283.626 533.854 286.949 522.509 297.24C515.079 272.689 496.793 264.092 475.028 262.823C451.272 258.932 427.594 282.003 420.206 300.511C414.063 299.812 404.884 297.857 399.105 301.648C361.598 291.812 296.023 286.389 288.398 291.854C282.964 293.939 279.982 306.765 287.572 307.457C294.186 306.518 286.8 298.059 293.467 297.136C328.99 294.934 363.475 302.088 398.622 305.09C401.76 309.311 411.899 310.723 417.308 309.027C408.789 340.423 427.179 361.783 454.734 368.181C497.401 377.982 534.522 339.814 523.365 300.114C536.29 293.684 551.157 293.96 565.237 297.347C541.709 383.937 681.166 380.052 659.385 288.963C673.88 296.173 677.028 284.583 669.423 283.128" fill="black"/>
<path fill-rule="evenodd" clip-rule="evenodd" d="M525.717 441.728C518.576 438.817 512.204 433.961 507.546 427.759C505.926 425.602 505.507 423.326 505.846 421.243C506.228 418.901 507.615 416.779 509.506 415.355C511.402 413.927 513.775 413.223 516.069 413.582C518.062 413.894 520.046 414.984 521.616 417.246L521.944 417.698C524.714 421.442 528.323 424.513 532.434 426.493C536.398 428.401 540.83 429.292 545.417 428.774C554.153 427.788 560.174 423.067 566.574 416.657C567.368 415.847 568.162 415.013 568.959 414.164C569.463 413.395 570.162 412.901 570.938 412.642C571.8 412.354 572.775 412.37 573.668 412.682C574.529 412.982 575.299 413.551 575.815 414.309C576.306 415.028 576.584 415.918 576.494 416.94C575.908 423.584 572.432 429.513 567.494 434.169C562.01 439.34 554.74 442.917 547.897 444.171C540.357 445.553 532.674 444.563 525.717 441.728V441.728ZM551.453 339.236C559.475 344.108 571.698 355.469 563.068 367.547C552.91 378.197 538.286 365.986 531.079 360.464C524.396 356.184 516.888 367.191 523.088 372.189C575.165 410.714 596.299 340.51 555.511 333.508C551.02 332.736 549.352 337.729 551.453 339.236ZM458.131 294.422C459.017 283.429 475.772 280.933 477.439 291.81C478.931 301.554 477.174 310.505 472.782 319.278C468.585 327.659 458.036 323.749 457.238 316.117C456.168 305.887 457.579 301.26 458.131 294.422ZM585.672 289.555C588.008 286.498 591.381 284.411 595.422 285.591C608.047 289.277 604.326 307.187 599.892 315.904C597.483 320.638 589.695 321.839 586.176 317.67C580.44 310.873 577.693 297.298 584.985 290.603C585.183 290.257 585.403 289.907 585.672 289.555ZM472.604 246.322L474.598 245.973C480.768 244.907 488.439 243.882 492.803 248.838C495.118 251.467 495.915 256.351 492.803 258.867C487.33 263.293 481.28 261.578 474.721 261.952C469.316 262.262 464.122 263.156 458.915 264.643C447.494 267.905 438.187 273.86 428.432 280.398C427.152 281.256 425.845 279.62 426.456 278.424C432.087 267.403 443 258.35 453.931 252.832C459.765 249.886 466.15 247.443 472.604 246.322ZM574.164 241.385L575.69 241.697C592.301 245.167 613.883 252.097 621.749 268.4C622.049 270.705 621.732 271.199 621.475 271.522L621.389 271.63C621.177 271.905 621.007 272.285 620.007 272.599C619.73 272.533 619.45 272.463 619.166 272.389C615.561 271.445 612.708 270.144 609.946 268.794L606.951 267.32C603.477 265.618 599.972 263.978 596.258 262.767C588.331 260.183 580.177 258.364 571.898 257.392C570.103 257.181 568.375 256.576 567.012 255.539C565.718 254.554 564.729 253.191 564.278 251.38C563.694 249.035 563.862 247.26 565.121 245.144C566.068 243.556 567.422 242.455 568.978 241.822C570.564 241.178 572.369 241.026 574.164 241.385Z" fill="black"/>
</svg>
